<svg id="svg" version="1.1" xmlns="http://www.w3.org/2000/svg" xmlns:xlink="http://www.w3.org/1999/xlink" width="400" height="400" viewBox="0, 0, 400,400"><g id="svgg"><path id="path0" d="M189.798 40.336 C 189.568 40.566,186.738 40.795,183.100 40.878 C 182.055 40.902,181.200 41.033,181.200 41.168 C 181.200 41.303,180.526 41.382,179.703 41.343 C 178.879 41.305,178.046 41.372,177.851 41.492 C 177.656 41.613,176.697 41.765,175.720 41.830 C 174.743 41.896,173.722 42.133,173.451 42.358 C 173.180 42.583,172.562 42.663,172.077 42.536 C 171.592 42.409,170.950 42.510,170.649 42.760 C 170.348 43.009,169.827 43.108,169.491 42.980 C 169.156 42.851,168.773 42.921,168.640 43.135 C 168.508 43.350,168.039 43.431,167.600 43.316 C 167.120 43.190,166.800 43.304,166.800 43.599 C 166.800 43.916,166.381 44.029,165.621 43.918 C 164.907 43.813,164.539 43.901,164.687 44.140 C 164.827 44.368,164.665 44.434,164.305 44.296 C 163.960 44.163,163.567 44.166,163.431 44.302 C 163.194 44.540,162.070 44.770,160.800 44.841 C 160.470 44.860,159.613 45.138,158.896 45.458 C 158.178 45.779,157.413 45.932,157.196 45.797 C 156.978 45.663,156.800 45.727,156.800 45.939 C 156.800 46.151,156.412 46.224,155.937 46.100 C 155.385 45.955,155.169 46.027,155.338 46.300 C 155.507 46.572,155.291 46.644,154.738 46.500 C 154.094 46.331,153.957 46.408,154.200 46.800 C 154.443 47.192,154.306 47.269,153.662 47.100 C 153.133 46.962,152.896 47.031,153.050 47.280 C 153.206 47.534,152.982 47.585,152.450 47.416 C 151.957 47.259,151.600 47.320,151.600 47.560 C 151.600 47.788,151.328 47.870,150.995 47.743 C 150.662 47.615,150.098 47.753,149.741 48.049 C 149.087 48.592,148.957 48.628,147.276 48.739 C 146.689 48.778,146.457 48.968,146.638 49.262 C 146.816 49.549,146.748 49.615,146.459 49.436 C 146.203 49.278,145.728 49.414,145.404 49.739 C 145.080 50.063,144.478 50.241,144.067 50.133 C 143.656 50.026,143.044 50.213,142.707 50.550 C 142.371 50.886,141.984 51.050,141.848 50.914 C 141.711 50.778,141.600 50.877,141.600 51.133 C 141.600 51.390,141.172 51.600,140.649 51.600 C 139.347 51.600,136.800 52.706,136.800 53.272 C 136.800 53.526,136.682 53.615,136.537 53.470 C 136.392 53.325,136.032 53.407,135.737 53.652 C 135.442 53.897,135.200 53.995,135.200 53.870 C 135.200 53.744,134.660 53.830,134.000 54.060 C 133.312 54.300,132.914 54.661,133.066 54.907 C 133.233 55.177,133.085 55.242,132.666 55.081 C 132.300 54.940,132.000 54.999,132.000 55.213 C 132.000 55.426,131.705 55.600,131.344 55.600 C 130.983 55.600,130.430 55.915,130.114 56.300 C 129.799 56.685,129.655 56.775,129.794 56.500 C 130.168 55.762,129.859 55.884,128.587 56.977 C 127.962 57.515,127.304 57.864,127.125 57.754 C 126.946 57.643,126.800 57.738,126.800 57.964 C 126.800 58.190,126.530 58.271,126.200 58.145 C 125.870 58.018,125.600 58.124,125.600 58.381 C 125.600 58.637,125.447 58.753,125.261 58.637 C 125.074 58.522,124.579 58.736,124.161 59.114 C 123.742 59.491,123.130 59.800,122.800 59.800 C 122.470 59.800,122.252 60.047,122.316 60.349 C 122.390 60.698,122.209 60.812,121.816 60.662 C 121.477 60.532,121.200 60.599,121.200 60.813 C 121.200 61.026,120.829 61.200,120.376 61.200 C 119.923 61.200,119.664 61.380,119.800 61.600 C 119.936 61.820,119.666 62.000,119.200 62.000 C 118.734 62.000,118.463 62.178,118.597 62.395 C 118.732 62.613,118.601 62.698,118.307 62.586 C 118.013 62.473,117.415 62.712,116.980 63.118 C 116.544 63.524,115.291 64.379,114.194 65.017 C 111.988 66.301,111.534 66.630,110.356 67.800 C 109.913 68.240,109.337 68.605,109.075 68.610 C 108.814 68.616,108.005 69.205,107.277 69.920 C 106.549 70.634,105.783 71.113,105.574 70.984 C 105.365 70.855,105.086 71.031,104.954 71.375 C 104.822 71.719,104.484 72.000,104.202 72.000 C 103.921 72.000,103.271 72.527,102.758 73.170 C 102.246 73.814,101.726 74.278,101.602 74.201 C 101.479 74.125,100.933 74.424,100.389 74.866 C 99.845 75.308,99.670 75.535,100.000 75.371 C 100.353 75.195,100.463 75.222,100.267 75.436 C 100.083 75.636,99.813 75.806,99.667 75.814 C 98.906 75.855,97.614 76.899,97.851 77.282 C 98.015 77.548,97.940 77.610,97.662 77.438 C 97.408 77.281,97.200 77.354,97.200 77.600 C 97.200 77.846,97.040 77.949,96.845 77.828 C 96.650 77.708,96.393 77.985,96.272 78.445 C 96.152 78.904,95.878 79.172,95.663 79.039 C 95.449 78.906,94.813 79.344,94.252 80.012 C 93.690 80.679,93.088 81.260,92.915 81.302 C 92.274 81.459,91.248 82.553,91.444 82.871 C 91.556 83.052,91.398 83.200,91.093 83.200 C 90.789 83.200,90.103 83.690,89.570 84.288 C 88.854 85.091,88.809 85.222,89.400 84.788 C 90.133 84.249,90.156 84.256,89.671 84.876 C 89.368 85.263,88.869 85.448,88.505 85.308 C 88.155 85.174,87.955 85.230,88.061 85.432 C 88.167 85.634,87.808 86.250,87.264 86.800 C 86.719 87.350,86.412 87.530,86.581 87.200 C 86.750 86.870,86.435 87.140,85.882 87.800 C 85.329 88.460,84.962 89.139,85.068 89.310 C 85.173 89.480,85.029 89.570,84.748 89.510 C 84.467 89.449,84.228 89.631,84.218 89.913 C 84.208 90.196,83.754 90.649,83.208 90.921 C 82.662 91.193,81.993 91.862,81.721 92.408 C 81.449 92.954,80.996 93.400,80.713 93.400 C 80.431 93.400,80.200 93.622,80.200 93.892 C 80.200 94.163,79.795 94.668,79.300 95.015 C 78.805 95.362,78.400 95.916,78.400 96.246 C 78.400 96.577,78.220 96.736,78.000 96.600 C 77.780 96.464,77.600 96.498,77.600 96.676 C 77.599 96.854,77.153 97.518,76.608 98.152 C 76.063 98.786,75.701 99.440,75.804 99.607 C 75.907 99.773,75.676 99.991,75.290 100.092 C 74.905 100.193,74.147 101.137,73.605 102.191 C 73.063 103.244,72.300 104.305,71.910 104.549 C 71.519 104.793,71.200 105.219,71.200 105.496 C 71.200 105.773,71.014 106.000,70.787 106.000 C 70.561 106.000,70.259 106.301,70.118 106.669 C 69.977 107.038,69.526 107.674,69.116 108.084 C 68.706 108.494,68.495 109.030,68.647 109.276 C 68.804 109.529,68.744 109.613,68.511 109.468 C 68.047 109.182,66.027 112.021,65.779 113.307 C 65.691 113.766,65.408 114.334,65.151 114.571 C 64.805 114.887,64.767 114.853,65.003 114.438 C 65.218 114.062,65.171 113.971,64.862 114.162 C 64.608 114.319,64.400 114.807,64.400 115.247 C 64.400 115.687,64.239 115.948,64.043 115.826 C 63.846 115.705,63.573 116.054,63.435 116.603 C 63.297 117.151,62.998 117.600,62.769 117.600 C 62.540 117.600,62.455 117.765,62.580 117.968 C 62.705 118.170,62.578 118.575,62.298 118.868 C 61.233 119.982,60.378 121.640,60.645 122.073 C 60.815 122.348,60.744 122.412,60.462 122.238 C 60.188 122.069,60.000 122.207,60.000 122.576 C 60.000 122.919,59.640 123.560,59.200 124.000 C 58.760 124.440,58.400 125.160,58.400 125.600 C 58.400 126.040,58.209 126.400,57.976 126.400 C 57.743 126.400,57.664 126.580,57.800 126.800 C 57.936 127.020,57.876 127.200,57.667 127.200 C 57.458 127.200,57.163 127.693,57.012 128.296 C 56.860 128.899,56.589 129.484,56.408 129.596 C 56.228 129.708,56.017 130.152,55.940 130.583 C 55.863 131.013,55.485 131.688,55.100 132.083 C 54.489 132.709,54.307 133.303,54.434 134.255 C 54.453 134.396,54.291 134.621,54.074 134.755 C 53.857 134.890,53.617 135.360,53.540 135.800 C 53.463 136.240,53.310 136.690,53.200 136.800 C 52.580 137.420,51.551 139.677,52.021 139.387 C 52.316 139.205,52.150 139.628,51.651 140.328 C 51.153 141.027,50.839 141.600,50.952 141.600 C 51.066 141.600,50.896 142.230,50.574 143.000 C 50.252 143.770,50.095 144.400,50.223 144.400 C 50.352 144.400,50.173 144.685,49.825 145.032 C 49.477 145.380,49.307 145.850,49.448 146.077 C 49.588 146.304,49.495 146.618,49.242 146.774 C 48.989 146.931,48.692 147.757,48.583 148.611 C 48.473 149.464,48.180 150.289,47.930 150.443 C 47.680 150.598,47.492 151.284,47.511 151.969 C 47.534 152.773,47.392 153.119,47.110 152.945 C 46.825 152.768,46.752 152.973,46.900 153.538 C 47.044 154.091,46.972 154.307,46.700 154.138 C 46.427 153.969,46.355 154.185,46.500 154.737 C 46.624 155.212,46.543 155.600,46.320 155.600 C 46.097 155.600,46.027 155.893,46.164 156.251 C 46.301 156.609,46.209 157.149,45.958 157.451 C 45.707 157.753,45.618 158.000,45.760 158.000 C 45.902 158.000,45.725 158.449,45.365 158.997 C 45.006 159.545,44.825 160.288,44.963 160.648 C 45.101 161.007,45.009 161.549,44.758 161.851 C 44.507 162.153,44.405 162.400,44.531 162.400 C 44.656 162.400,44.522 162.985,44.232 163.700 C 43.943 164.415,43.742 165.405,43.786 165.900 C 43.830 166.395,43.718 166.800,43.538 166.800 C 43.357 166.800,43.212 167.205,43.216 167.700 C 43.225 168.956,42.974 170.476,42.625 171.281 C 42.462 171.655,42.446 172.150,42.588 172.381 C 42.731 172.611,42.688 172.800,42.494 172.800 C 42.300 172.800,42.174 173.385,42.215 174.100 C 42.255 174.815,42.112 175.624,41.897 175.898 C 41.682 176.171,41.591 176.841,41.695 177.386 C 41.799 177.930,41.750 178.292,41.585 178.191 C 41.420 178.089,41.271 178.409,41.254 178.903 C 41.154 181.798,40.821 185.243,40.607 185.588 C 40.471 185.808,40.359 186.846,40.358 187.894 C 40.356 188.942,40.303 194.210,40.238 199.600 C 40.174 204.990,40.226 209.580,40.352 209.800 C 40.479 210.020,40.614 211.100,40.653 212.200 C 40.691 213.300,40.831 215.280,40.964 216.600 C 41.097 217.920,41.232 219.669,41.263 220.486 C 41.295 221.304,41.437 221.901,41.580 221.812 C 41.723 221.724,41.822 222.348,41.800 223.200 C 41.778 224.052,41.923 224.648,42.123 224.524 C 42.332 224.395,42.369 224.830,42.211 225.550 C 42.060 226.237,42.092 226.800,42.281 226.800 C 42.471 226.800,42.667 227.745,42.717 228.900 C 42.767 230.055,42.986 231.060,43.203 231.133 C 43.421 231.206,43.489 231.701,43.356 232.233 C 43.222 232.765,43.268 233.200,43.457 233.200 C 43.645 233.201,43.829 233.945,43.864 234.854 C 43.899 235.764,44.134 236.635,44.385 236.791 C 44.636 236.946,44.811 237.237,44.774 237.437 C 44.736 237.636,44.742 237.890,44.786 238.000 C 44.830 238.110,44.929 238.560,45.006 239.000 C 45.260 240.456,45.419 240.994,45.751 241.527 C 45.932 241.816,45.989 242.144,45.878 242.255 C 45.768 242.366,45.915 242.916,46.206 243.477 C 46.497 244.038,46.670 244.835,46.591 245.249 C 46.511 245.662,46.626 246.000,46.847 246.000 C 47.067 246.000,47.136 246.180,47.000 246.400 C 46.864 246.620,46.954 246.800,47.200 246.800 C 47.446 246.800,47.531 246.988,47.389 247.218 C 47.247 247.447,47.372 247.932,47.666 248.294 C 48.122 248.857,48.112 248.903,47.600 248.608 C 47.243 248.402,47.324 248.642,47.800 249.200 C 48.240 249.716,48.377 250.007,48.105 249.848 C 47.519 249.505,47.775 250.332,48.866 252.300 C 49.262 253.015,49.477 253.600,49.344 253.600 C 49.211 253.600,49.303 253.842,49.548 254.137 C 49.793 254.432,49.879 254.788,49.740 254.927 C 49.600 255.067,49.698 255.437,49.958 255.750 C 50.218 256.062,50.512 256.741,50.611 257.258 C 50.711 257.775,50.975 258.258,51.199 258.333 C 51.422 258.407,51.511 258.621,51.396 258.807 C 51.152 259.202,52.291 261.854,53.184 262.969 C 53.651 263.552,53.664 263.658,53.238 263.407 C 52.614 263.040,52.810 263.459,54.079 265.204 C 54.481 265.757,54.895 266.656,55.001 267.203 C 55.106 267.750,55.374 268.258,55.596 268.332 C 55.818 268.406,56.000 268.716,56.000 269.020 C 56.000 269.720,57.300 272.555,57.702 272.734 C 57.869 272.808,57.903 273.033,57.779 273.234 C 57.655 273.435,57.743 273.600,57.976 273.600 C 58.209 273.600,58.400 273.966,58.400 274.413 C 58.400 274.859,58.670 275.329,59.000 275.455 C 59.330 275.582,59.600 276.032,59.600 276.455 C 59.600 276.879,59.832 277.314,60.116 277.423 C 60.399 277.532,60.658 277.979,60.691 278.416 C 60.724 278.854,61.122 279.683,61.576 280.260 C 62.029 280.836,62.400 281.510,62.400 281.758 C 62.400 282.006,62.850 282.693,63.400 283.287 C 63.950 283.880,64.400 284.553,64.400 284.783 C 64.400 285.012,64.562 285.200,64.761 285.200 C 64.959 285.200,65.300 285.695,65.517 286.300 C 65.735 286.905,66.248 287.767,66.657 288.216 C 67.065 288.664,67.455 289.294,67.522 289.616 C 67.589 289.937,67.938 290.425,68.298 290.700 C 68.658 290.975,68.784 291.206,68.576 291.213 C 68.369 291.221,68.597 291.558,69.083 291.964 C 69.569 292.369,69.866 292.801,69.744 292.923 C 69.622 293.045,69.900 293.380,70.361 293.669 C 70.822 293.957,71.200 294.419,71.200 294.696 C 71.200 294.973,71.380 295.200,71.600 295.200 C 71.820 295.200,72.000 295.481,72.000 295.824 C 72.000 296.167,72.160 296.348,72.356 296.227 C 72.552 296.106,73.010 296.635,73.375 297.404 C 73.739 298.172,74.197 298.800,74.392 298.800 C 74.587 298.800,74.861 299.163,75.002 299.606 C 75.143 300.049,75.425 300.308,75.629 300.182 C 75.833 300.056,76.000 300.251,76.000 300.616 C 76.000 300.981,76.585 301.834,77.300 302.512 C 78.015 303.189,78.330 303.605,78.000 303.436 C 77.670 303.266,78.345 304.007,79.500 305.082 C 80.655 306.157,81.600 307.220,81.600 307.444 C 81.600 308.084,83.821 310.046,84.161 309.706 C 84.329 309.538,84.407 309.583,84.333 309.808 C 84.191 310.242,85.726 312.387,86.274 312.521 C 86.453 312.564,86.551 312.748,86.490 312.930 C 86.430 313.111,86.544 313.158,86.745 313.034 C 86.945 312.910,87.355 313.111,87.655 313.481 C 88.124 314.060,88.116 314.104,87.600 313.800 C 87.080 313.493,87.074 313.538,87.557 314.133 C 87.863 314.510,88.198 314.735,88.301 314.632 C 88.405 314.529,88.935 314.974,89.480 315.622 C 90.025 316.270,90.715 316.800,91.014 316.800 C 91.312 316.800,91.791 317.275,92.078 317.856 C 92.365 318.436,92.732 318.841,92.892 318.756 C 93.053 318.670,93.468 319.005,93.815 319.500 C 94.162 319.995,94.683 320.400,94.974 320.400 C 95.264 320.400,95.749 320.705,96.051 321.077 C 96.525 321.661,96.518 321.705,96.000 321.400 C 95.484 321.096,95.476 321.140,95.945 321.719 C 96.245 322.089,96.650 322.293,96.845 322.172 C 97.040 322.051,97.200 322.154,97.200 322.400 C 97.200 322.646,97.408 322.719,97.662 322.562 C 97.930 322.396,98.016 322.451,97.866 322.693 C 97.571 323.170,98.457 324.020,99.391 324.158 C 99.738 324.208,100.011 324.380,99.997 324.539 C 99.961 324.944,101.064 326.000,101.522 326.000 C 101.731 326.000,102.124 326.268,102.396 326.596 C 102.668 326.923,103.055 327.090,103.255 326.966 C 103.456 326.842,103.570 326.963,103.510 327.235 C 103.449 327.507,103.816 327.835,104.324 327.965 C 104.832 328.094,105.204 328.380,105.152 328.600 C 105.100 328.820,105.402 329.066,105.823 329.147 C 106.244 329.229,106.957 329.724,107.407 330.247 C 107.857 330.771,108.445 331.200,108.713 331.200 C 108.981 331.200,109.200 331.380,109.200 331.600 C 109.200 331.820,109.470 332.000,109.800 332.000 C 110.130 332.000,110.400 332.180,110.400 332.400 C 110.400 332.620,110.599 332.800,110.842 332.800 C 111.085 332.800,111.821 333.251,112.476 333.803 C 113.132 334.354,113.860 334.686,114.096 334.541 C 114.349 334.384,114.407 334.465,114.238 334.738 C 114.069 335.012,114.207 335.200,114.576 335.200 C 114.919 335.200,115.200 335.380,115.200 335.600 C 115.200 335.820,115.388 336.000,115.617 336.000 C 115.846 336.000,116.425 336.364,116.903 336.810 C 117.381 337.255,118.013 337.527,118.307 337.414 C 118.601 337.302,118.750 337.358,118.637 337.540 C 118.525 337.722,119.145 338.272,120.016 338.761 C 120.887 339.251,121.600 339.515,121.600 339.349 C 121.600 339.183,121.855 339.396,122.167 339.823 C 122.479 340.250,122.858 340.475,123.010 340.323 C 123.161 340.172,123.653 340.391,124.103 340.810 C 124.553 341.229,125.074 341.478,125.261 341.363 C 125.447 341.247,125.600 341.343,125.600 341.576 C 125.600 341.809,125.735 341.974,125.900 341.943 C 126.429 341.842,128.800 342.867,128.800 343.196 C 128.800 343.371,129.079 343.622,129.421 343.753 C 129.829 343.909,129.956 343.822,129.791 343.495 C 129.653 343.223,129.779 343.281,130.070 343.625 C 130.624 344.278,131.986 344.972,132.500 344.864 C 132.665 344.829,132.800 344.999,132.800 345.243 C 132.800 345.486,133.079 345.578,133.421 345.447 C 133.826 345.292,133.942 345.370,133.755 345.673 C 133.564 345.982,133.690 346.051,134.134 345.881 C 134.500 345.740,134.800 345.810,134.800 346.036 C 134.800 346.262,134.968 346.344,135.172 346.217 C 135.377 346.091,135.660 346.173,135.800 346.400 C 135.940 346.627,136.223 346.709,136.428 346.583 C 136.632 346.456,136.800 346.541,136.800 346.771 C 136.800 347.302,139.394 348.400,140.649 348.400 C 141.172 348.400,141.600 348.610,141.600 348.867 C 141.600 349.123,141.711 349.222,141.848 349.086 C 141.984 348.950,142.371 349.114,142.707 349.450 C 143.044 349.787,143.656 349.974,144.067 349.867 C 144.478 349.759,145.080 349.937,145.404 350.261 C 145.728 350.586,146.203 350.722,146.459 350.564 C 146.757 350.379,146.815 350.452,146.622 350.765 C 146.434 351.068,146.525 351.212,146.860 351.143 C 147.157 351.082,147.827 351.268,148.348 351.556 C 149.139 351.993,149.244 351.990,148.980 351.540 C 148.805 351.243,149.047 351.337,149.516 351.749 C 149.986 352.160,150.647 352.391,150.985 352.261 C 151.323 352.131,151.600 352.212,151.600 352.440 C 151.600 352.680,151.957 352.741,152.450 352.584 C 152.982 352.415,153.206 352.466,153.050 352.720 C 152.896 352.969,153.133 353.038,153.662 352.900 C 154.306 352.731,154.443 352.808,154.200 353.200 C 153.957 353.592,154.094 353.669,154.738 353.500 C 155.291 353.356,155.507 353.428,155.338 353.700 C 155.169 353.973,155.385 354.045,155.937 353.900 C 156.412 353.776,156.800 353.849,156.800 354.061 C 156.800 354.273,156.982 354.335,157.205 354.197 C 157.428 354.059,158.170 354.226,158.854 354.567 C 159.538 354.908,160.236 355.101,160.406 354.996 C 160.576 354.891,161.409 355.047,162.257 355.343 C 163.106 355.638,164.050 355.794,164.356 355.688 C 164.661 355.583,164.806 355.667,164.677 355.876 C 164.541 356.095,164.939 356.182,165.621 356.082 C 166.381 355.971,166.800 356.084,166.800 356.401 C 166.800 356.696,167.120 356.810,167.600 356.684 C 168.039 356.569,168.509 356.653,168.643 356.870 C 168.777 357.087,169.333 357.153,169.877 357.016 C 170.514 356.857,170.775 356.916,170.610 357.184 C 170.450 357.443,170.930 357.612,171.876 357.631 C 172.714 357.647,173.760 357.739,174.200 357.834 C 174.640 357.930,175.558 358.069,176.240 358.143 C 176.922 358.218,177.643 358.380,177.843 358.503 C 178.042 358.626,178.879 358.695,179.703 358.657 C 180.526 358.618,181.200 358.697,181.200 358.832 C 181.200 358.967,182.055 359.107,183.100 359.142 C 184.145 359.178,185.990 359.300,187.200 359.414 C 190.106 359.688,209.591 359.680,212.400 359.404 C 213.610 359.285,215.500 359.122,216.600 359.042 C 217.700 358.961,218.690 358.857,218.800 358.809 C 218.910 358.761,219.630 358.719,220.400 358.716 C 221.170 358.713,221.967 358.610,222.171 358.487 C 222.375 358.365,223.095 358.222,223.771 358.170 C 226.651 357.949,229.200 357.464,229.200 357.137 C 229.200 356.943,229.630 356.893,230.156 357.025 C 230.682 357.157,231.223 357.087,231.357 356.870 C 231.491 356.653,231.961 356.569,232.400 356.684 C 232.880 356.810,233.200 356.696,233.200 356.401 C 233.200 356.084,233.619 355.971,234.379 356.082 C 235.061 356.182,235.459 356.095,235.323 355.876 C 235.194 355.667,235.339 355.583,235.644 355.688 C 235.950 355.794,236.894 355.638,237.743 355.343 C 238.591 355.047,239.424 354.891,239.594 354.996 C 239.764 355.101,240.462 354.908,241.146 354.567 C 241.830 354.226,242.572 354.059,242.795 354.197 C 243.018 354.335,243.200 354.273,243.200 354.061 C 243.200 353.849,243.588 353.776,244.063 353.900 C 244.615 354.045,244.831 353.973,244.662 353.700 C 244.493 353.428,244.709 353.356,245.262 353.500 C 245.906 353.669,246.043 353.592,245.800 353.200 C 245.557 352.808,245.694 352.731,246.338 352.900 C 246.867 353.038,247.104 352.969,246.950 352.720 C 246.794 352.466,247.018 352.415,247.550 352.584 C 248.043 352.741,248.400 352.680,248.400 352.440 C 248.400 352.212,248.672 352.130,249.005 352.257 C 249.338 352.385,249.902 352.247,250.259 351.951 C 250.616 351.654,251.109 351.404,251.354 351.395 C 252.503 351.350,254.400 350.696,254.400 350.345 C 254.400 350.129,254.580 350.064,254.800 350.200 C 255.020 350.336,255.200 350.273,255.200 350.061 C 255.200 349.849,255.533 349.762,255.940 349.869 C 256.348 349.975,256.956 349.787,257.293 349.450 C 257.629 349.114,258.016 348.950,258.152 349.086 C 258.289 349.222,258.400 349.123,258.400 348.867 C 258.400 348.610,258.828 348.400,259.351 348.400 C 260.606 348.400,263.200 347.302,263.200 346.771 C 263.200 346.541,263.368 346.456,263.572 346.583 C 263.777 346.709,264.060 346.627,264.200 346.400 C 264.340 346.173,264.623 346.091,264.828 346.217 C 265.032 346.344,265.200 346.246,265.200 346.000 C 265.200 345.754,265.376 345.661,265.590 345.794 C 266.032 346.067,269.096 344.514,269.919 343.600 C 270.216 343.270,270.347 343.223,270.209 343.495 C 270.044 343.822,270.171 343.909,270.579 343.753 C 270.921 343.622,271.200 343.376,271.200 343.206 C 271.200 342.855,273.642 341.760,274.100 341.905 C 274.265 341.957,274.400 341.809,274.400 341.576 C 274.400 341.343,274.553 341.247,274.739 341.363 C 274.926 341.478,275.447 341.229,275.897 340.810 C 276.347 340.391,276.839 340.172,276.990 340.323 C 277.142 340.475,277.521 340.250,277.833 339.823 C 278.145 339.396,278.400 339.183,278.400 339.349 C 278.400 339.515,279.113 339.251,279.984 338.761 C 280.855 338.272,281.475 337.722,281.363 337.540 C 281.250 337.358,281.393 337.298,281.679 337.406 C 281.966 337.515,282.830 337.063,283.600 336.403 C 284.370 335.742,285.187 335.201,285.415 335.201 C 285.643 335.200,286.453 334.667,287.215 334.016 C 287.977 333.365,288.806 332.825,289.057 332.816 C 289.309 332.807,289.622 332.519,289.754 332.175 C 289.886 331.831,290.157 331.650,290.355 331.772 C 290.554 331.895,290.824 331.715,290.955 331.372 C 291.087 331.030,291.377 330.862,291.600 331.000 C 291.823 331.138,292.113 330.970,292.245 330.628 C 292.376 330.285,292.645 330.104,292.842 330.226 C 293.039 330.348,293.200 330.167,293.200 329.824 C 293.200 329.259,293.672 329.019,294.511 329.156 C 294.682 329.184,294.927 328.936,295.054 328.604 C 295.181 328.272,295.505 328.000,295.773 328.000 C 296.041 328.000,296.683 327.550,297.200 327.000 C 297.717 326.450,298.286 326.000,298.465 326.000 C 299.079 326.000,300.359 324.658,300.118 324.267 C 299.985 324.052,300.055 323.987,300.273 324.122 C 300.834 324.468,302.469 323.236,302.145 322.711 C 301.985 322.451,302.062 322.391,302.338 322.562 C 302.592 322.719,302.800 322.646,302.800 322.400 C 302.800 322.154,302.960 322.051,303.155 322.172 C 303.350 322.292,303.602 322.035,303.716 321.600 C 303.830 321.165,304.375 320.637,304.929 320.427 C 305.483 320.217,306.101 319.748,306.304 319.386 C 306.506 319.024,306.836 318.699,307.036 318.664 C 307.236 318.629,307.351 318.452,307.290 318.270 C 307.230 318.089,307.336 318.037,307.527 318.155 C 307.717 318.272,308.487 317.709,309.237 316.902 C 309.986 316.095,310.240 315.694,309.800 316.011 C 309.012 316.578,309.011 316.574,309.748 315.709 C 310.159 315.227,310.641 314.870,310.819 314.916 C 310.998 314.962,311.440 314.640,311.801 314.200 C 312.163 313.760,312.328 313.653,312.168 313.962 C 311.976 314.331,312.035 314.426,312.338 314.238 C 312.592 314.081,312.797 313.738,312.794 313.476 C 312.790 313.214,313.555 312.302,314.494 311.449 C 315.432 310.597,315.840 310.147,315.400 310.449 C 314.662 310.957,314.643 310.945,315.157 310.290 C 315.463 309.900,315.811 309.678,315.929 309.796 C 316.225 310.092,318.400 307.963,318.400 307.377 C 318.400 307.117,319.120 306.317,320.000 305.600 C 320.880 304.883,321.600 304.044,321.600 303.735 C 321.600 303.427,321.869 303.072,322.198 302.946 C 322.526 302.819,322.679 302.527,322.536 302.296 C 322.393 302.065,322.452 301.985,322.667 302.118 C 323.154 302.419,324.308 301.124,324.102 300.506 C 324.019 300.256,324.414 299.748,324.980 299.377 C 325.546 299.006,326.297 298.096,326.648 297.355 C 327.000 296.613,327.448 296.106,327.644 296.227 C 327.840 296.348,328.000 296.167,328.000 295.824 C 328.000 295.481,328.180 295.200,328.400 295.200 C 328.620 295.200,328.800 294.973,328.800 294.696 C 328.800 294.419,329.178 293.957,329.639 293.669 C 330.100 293.380,330.385 293.052,330.272 292.939 C 330.159 292.826,330.418 292.382,330.848 291.952 C 331.278 291.522,331.530 291.010,331.408 290.813 C 331.286 290.616,331.398 290.325,331.655 290.166 C 331.963 289.976,332.029 290.069,331.847 290.438 C 331.695 290.747,331.802 290.663,332.085 290.250 C 333.803 287.749,334.400 286.697,334.400 286.170 C 334.400 285.843,334.670 285.471,335.000 285.345 C 335.330 285.218,335.600 284.946,335.600 284.740 C 335.600 284.534,336.050 283.880,336.600 283.287 C 337.150 282.693,337.600 282.003,337.600 281.753 C 337.600 281.503,337.878 281.067,338.218 280.785 C 338.558 280.503,338.749 280.044,338.642 279.765 C 338.535 279.486,338.705 279.045,339.019 278.784 C 339.334 278.523,339.504 278.169,339.398 277.997 C 339.292 277.825,339.454 277.588,339.758 277.471 C 340.363 277.239,341.600 275.001,341.600 274.139 C 341.600 273.842,341.791 273.600,342.024 273.600 C 342.257 273.600,342.336 273.420,342.200 273.200 C 342.064 272.980,342.143 272.800,342.376 272.800 C 342.609 272.800,342.800 272.619,342.800 272.398 C 342.800 272.177,343.263 271.052,343.828 269.898 C 344.394 268.744,344.932 267.442,345.024 267.004 C 345.116 266.567,345.561 265.708,346.014 265.096 C 346.466 264.484,346.735 263.819,346.612 263.619 C 346.488 263.419,346.569 263.143,346.792 263.005 C 347.406 262.625,349.247 258.399,348.983 257.973 C 348.857 257.768,348.913 257.600,349.110 257.600 C 349.306 257.600,349.497 257.330,349.533 257.000 C 349.570 256.670,349.630 256.130,349.667 255.800 C 349.703 255.470,349.903 255.200,350.109 255.200 C 350.316 255.200,350.382 254.930,350.255 254.600 C 350.129 254.270,350.178 254.000,350.366 254.000 C 350.650 254.000,350.912 253.468,351.352 252.000 C 351.385 251.890,351.555 251.575,351.730 251.300 C 351.904 251.025,351.929 250.609,351.784 250.375 C 351.640 250.141,351.832 249.607,352.211 249.188 C 352.608 248.749,352.810 248.082,352.688 247.613 C 352.571 247.166,352.649 246.800,352.861 246.800 C 353.073 246.800,353.136 246.620,353.000 246.400 C 352.864 246.180,352.931 246.000,353.150 246.000 C 353.368 246.000,353.531 245.466,353.513 244.814 C 353.494 244.161,353.685 243.380,353.936 243.077 C 354.187 242.774,354.279 242.412,354.140 242.273 C 354.000 242.133,354.114 241.745,354.392 241.410 C 354.670 241.074,354.764 240.800,354.600 240.800 C 354.436 240.800,354.524 240.532,354.796 240.205 C 355.067 239.878,355.187 239.344,355.062 239.018 C 354.937 238.692,355.010 238.317,355.224 238.185 C 355.438 238.053,355.523 237.799,355.413 237.621 C 355.303 237.443,355.476 236.769,355.798 236.124 C 356.120 235.479,356.307 234.557,356.215 234.076 C 356.122 233.594,356.235 233.200,356.466 233.200 C 356.715 233.200,356.784 232.792,356.636 232.200 C 356.489 231.616,356.557 231.200,356.799 231.200 C 357.026 231.200,357.211 230.705,357.208 230.100 C 357.201 228.524,357.414 227.111,357.784 226.275 C 357.961 225.876,358.126 224.678,358.153 223.613 C 358.179 222.548,358.308 221.744,358.440 221.825 C 358.572 221.906,358.706 221.304,358.739 220.486 C 358.857 217.514,359.109 214.870,359.306 214.539 C 359.417 214.353,359.474 213.243,359.434 212.074 C 359.394 210.905,359.465 209.884,359.592 209.805 C 359.719 209.726,359.771 205.193,359.706 199.731 C 359.641 194.269,359.588 188.765,359.589 187.500 C 359.589 186.235,359.446 185.200,359.270 185.200 C 359.094 185.200,359.008 184.425,359.079 183.478 C 359.150 182.531,358.954 180.911,358.644 179.879 C 358.333 178.846,358.215 178.086,358.382 178.189 C 358.743 178.412,358.419 176.374,358.002 175.800 C 357.842 175.580,357.744 174.824,357.785 174.120 C 357.825 173.417,357.702 172.937,357.513 173.054 C 357.323 173.171,357.280 172.822,357.416 172.277 C 357.553 171.733,357.478 171.172,357.250 171.031 C 357.022 170.890,356.937 170.508,357.062 170.182 C 357.187 169.856,357.112 169.367,356.895 169.095 C 356.678 168.823,356.567 168.195,356.648 167.700 C 356.729 167.205,356.625 166.800,356.416 166.800 C 356.208 166.800,356.063 166.395,356.095 165.900 C 356.174 164.640,355.580 162.035,355.153 161.771 C 354.957 161.650,354.914 161.085,355.057 160.516 C 355.228 159.834,355.172 159.570,354.893 159.742 C 354.645 159.896,354.520 159.714,354.591 159.302 C 354.657 158.916,354.472 158.218,354.180 157.751 C 353.888 157.284,353.756 156.491,353.887 155.988 C 354.063 155.316,353.992 155.157,353.620 155.388 C 353.243 155.620,353.187 155.471,353.400 154.800 C 353.581 154.229,353.537 153.992,353.280 154.150 C 353.031 154.304,352.962 154.067,353.100 153.538 C 353.236 153.020,353.167 152.773,352.930 152.920 C 352.701 153.061,352.533 152.650,352.533 151.947 C 352.533 151.278,352.327 150.602,352.075 150.446 C 351.822 150.290,351.527 149.464,351.417 148.611 C 351.308 147.757,351.025 146.939,350.788 146.793 C 350.551 146.646,350.411 146.363,350.475 146.163 C 350.613 145.738,349.398 142.263,348.584 140.756 C 348.275 140.182,348.136 139.597,348.277 139.456 C 348.418 139.315,348.323 139.200,348.067 139.200 C 347.810 139.200,347.619 139.065,347.643 138.900 C 347.738 138.242,347.081 136.800,346.687 136.800 C 346.456 136.800,346.380 136.686,346.519 136.547 C 346.658 136.408,346.560 135.913,346.301 135.447 C 346.042 134.981,345.868 134.465,345.915 134.300 C 345.962 134.135,345.826 134.000,345.613 134.000 C 345.399 134.000,345.316 133.764,345.426 133.476 C 345.537 133.188,345.187 132.302,344.648 131.508 C 344.109 130.715,343.773 129.960,343.901 129.833 C 344.029 129.705,343.938 129.600,343.698 129.600 C 343.459 129.600,343.145 129.060,343.000 128.400 C 342.855 127.740,342.560 127.200,342.345 127.200 C 342.129 127.200,342.064 127.020,342.200 126.800 C 342.336 126.580,342.257 126.400,342.024 126.400 C 341.791 126.400,341.600 126.064,341.600 125.654 C 341.600 125.244,341.240 124.450,340.800 123.891 C 340.360 123.331,340.000 122.667,340.000 122.413 C 340.000 122.160,339.822 122.063,339.605 122.197 C 339.386 122.333,339.307 122.188,339.428 121.872 C 339.548 121.559,339.354 121.191,338.998 121.054 C 338.633 120.914,338.475 120.603,338.636 120.342 C 338.793 120.087,338.667 119.681,338.356 119.439 C 337.595 118.849,336.402 116.952,336.391 116.314 C 336.386 116.031,336.011 115.350,335.556 114.800 C 335.102 114.250,334.863 114.070,335.024 114.400 C 335.241 114.843,335.195 114.888,334.849 114.571 C 334.592 114.334,334.308 113.763,334.219 113.300 C 333.974 112.026,332.767 110.373,332.294 110.665 C 332.032 110.827,331.998 110.727,332.203 110.396 C 332.419 110.045,332.138 109.539,331.365 108.890 C 330.724 108.352,330.470 108.035,330.800 108.186 C 331.181 108.359,331.144 108.250,330.700 107.886 C 330.315 107.570,330.000 107.096,330.000 106.832 C 330.000 106.569,329.839 106.452,329.642 106.574 C 329.290 106.792,328.612 105.688,328.736 105.100 C 328.771 104.935,328.609 104.800,328.376 104.800 C 328.143 104.800,328.059 104.628,328.189 104.418 C 328.319 104.207,327.970 103.737,327.413 103.372 C 326.856 103.007,326.400 102.537,326.400 102.327 C 326.400 101.883,324.625 99.423,323.311 98.045 C 322.810 97.520,322.400 96.925,322.400 96.722 C 322.400 96.519,322.220 96.464,322.000 96.600 C 321.780 96.736,321.600 96.577,321.600 96.246 C 321.600 95.916,321.195 95.362,320.700 95.015 C 320.205 94.668,319.800 94.163,319.800 93.892 C 319.800 93.622,319.569 93.400,319.287 93.400 C 319.004 93.400,318.551 92.954,318.279 92.408 C 318.007 91.862,317.371 91.210,316.867 90.958 C 316.362 90.707,316.006 90.422,316.075 90.326 C 316.346 89.945,312.698 86.016,312.301 86.261 C 312.058 86.411,311.993 86.334,312.149 86.082 C 312.391 85.692,310.919 84.557,310.400 84.732 C 310.290 84.770,310.200 84.637,310.200 84.438 C 310.200 84.039,307.388 81.200,306.994 81.200 C 306.859 81.200,306.294 80.660,305.738 79.999 C 305.182 79.338,304.551 78.906,304.337 79.039 C 304.122 79.172,303.847 78.899,303.725 78.434 C 303.595 77.938,303.233 77.631,302.852 77.694 C 302.493 77.752,302.243 77.580,302.296 77.312 C 302.388 76.844,301.033 75.863,300.200 75.796 C 299.980 75.778,299.845 75.547,299.900 75.282 C 299.955 75.017,299.730 74.800,299.400 74.800 C 299.070 74.800,298.800 74.590,298.800 74.333 C 298.800 74.077,298.694 73.973,298.564 74.103 C 298.434 74.233,297.716 73.711,296.970 72.942 C 296.134 72.081,295.419 71.657,295.107 71.836 C 294.828 71.997,294.733 71.981,294.897 71.801 C 295.334 71.318,294.435 70.412,293.771 70.667 C 293.422 70.800,293.200 70.635,293.200 70.243 C 293.200 69.889,292.949 69.600,292.643 69.600 C 292.336 69.600,291.978 69.319,291.846 68.975 C 291.714 68.631,291.424 68.461,291.203 68.598 C 290.981 68.735,290.800 68.657,290.800 68.424 C 290.800 68.191,290.429 68.000,289.976 68.000 C 289.523 68.000,289.264 67.820,289.400 67.600 C 289.536 67.380,289.361 67.200,289.011 67.200 C 288.661 67.200,288.278 66.946,288.159 66.637 C 288.040 66.327,287.370 65.838,286.671 65.551 C 285.972 65.264,285.220 64.891,285.000 64.721 C 284.780 64.551,284.019 63.946,283.308 63.377 C 282.588 62.800,281.808 62.471,281.546 62.633 C 281.280 62.798,281.183 62.752,281.322 62.526 C 281.635 62.020,278.784 60.433,278.044 60.702 C 277.739 60.813,277.595 60.731,277.726 60.520 C 278.015 60.053,274.116 57.881,273.581 58.212 C 273.371 58.341,273.200 58.246,273.200 58.000 C 273.200 57.754,273.054 57.643,272.875 57.754 C 272.696 57.864,272.038 57.515,271.413 56.977 C 270.141 55.884,269.832 55.762,270.206 56.500 C 270.345 56.775,270.201 56.685,269.886 56.300 C 269.570 55.915,269.017 55.600,268.656 55.600 C 268.295 55.600,268.000 55.426,268.000 55.213 C 268.000 54.999,267.700 54.940,267.334 55.081 C 266.917 55.241,266.767 55.177,266.932 54.910 C 267.229 54.430,266.125 53.875,265.564 54.222 C 265.364 54.346,265.200 54.246,265.200 54.000 C 265.200 53.754,265.032 53.656,264.828 53.783 C 264.623 53.909,264.340 53.827,264.200 53.600 C 264.060 53.373,263.777 53.291,263.572 53.417 C 263.368 53.544,263.200 53.459,263.200 53.229 C 263.200 52.698,260.606 51.600,259.351 51.600 C 258.828 51.600,258.400 51.442,258.400 51.249 C 258.400 50.867,256.687 50.108,255.400 49.918 C 254.960 49.853,254.362 49.575,254.071 49.300 C 253.781 49.025,253.151 48.773,252.671 48.739 C 251.038 48.625,250.908 48.588,250.259 48.049 C 249.902 47.753,249.338 47.615,249.005 47.743 C 248.672 47.870,248.400 47.788,248.400 47.560 C 248.400 47.320,248.043 47.259,247.550 47.416 C 246.982 47.596,246.790 47.540,246.971 47.247 C 247.136 46.979,247.016 46.896,246.661 47.032 C 246.342 47.154,245.967 47.070,245.828 46.845 C 245.688 46.619,245.281 46.548,244.922 46.685 C 244.485 46.853,244.365 46.781,244.558 46.468 C 244.737 46.179,244.571 45.989,244.124 45.972 C 242.474 45.910,241.111 45.624,240.655 45.245 C 240.388 45.024,239.400 44.797,238.459 44.741 C 237.518 44.686,236.658 44.494,236.547 44.314 C 236.436 44.134,236.177 44.091,235.972 44.217 C 235.768 44.344,235.600 44.288,235.600 44.093 C 235.600 43.898,235.060 43.818,234.400 43.915 C 233.622 44.029,233.200 43.918,233.200 43.599 C 233.200 43.304,232.880 43.190,232.400 43.316 C 231.961 43.431,231.500 43.361,231.376 43.161 C 231.252 42.961,230.712 42.907,230.175 43.042 C 229.639 43.177,229.200 43.112,229.200 42.899 C 229.200 42.542,226.747 42.059,223.771 41.830 C 223.095 41.778,222.375 41.635,222.171 41.513 C 221.967 41.390,221.170 41.287,220.400 41.284 C 219.630 41.281,218.910 41.239,218.800 41.191 C 218.690 41.143,217.790 41.038,216.800 40.958 C 215.810 40.877,213.920 40.707,212.600 40.579 C 209.261 40.258,190.081 40.052,189.798 40.336 M197.100 96.930 C 197.375 97.104,197.808 97.119,198.062 96.962 C 198.369 96.772,198.414 96.854,198.196 97.206 C 197.953 97.599,198.055 97.664,198.592 97.458 C 199.039 97.287,199.601 97.439,200.060 97.855 C 200.470 98.225,200.915 98.418,201.050 98.283 C 201.185 98.148,201.557 98.300,201.876 98.619 C 202.196 98.939,202.762 99.200,203.134 99.200 C 203.506 99.200,204.139 99.638,204.541 100.174 C 204.943 100.709,205.508 101.057,205.796 100.946 C 206.084 100.836,206.455 100.966,206.621 101.235 C 206.827 101.568,206.757 101.621,206.400 101.400 C 206.054 101.186,205.973 101.233,206.162 101.538 C 206.319 101.792,206.717 102.000,207.047 102.000 C 207.377 102.000,207.536 102.180,207.400 102.400 C 207.264 102.620,207.424 102.800,207.757 102.800 C 208.089 102.800,208.504 103.025,208.680 103.300 C 209.208 104.125,210.642 105.155,210.211 104.400 C 210.023 104.070,210.340 104.295,210.915 104.900 C 211.491 105.505,212.150 106.000,212.381 106.000 C 212.611 106.000,212.755 106.225,212.700 106.500 C 212.645 106.775,212.902 107.002,213.272 107.005 C 213.641 107.008,214.091 107.172,214.272 107.369 C 214.461 107.576,214.345 107.610,214.000 107.449 C 213.670 107.296,213.748 107.402,214.173 107.685 C 214.598 107.968,215.455 108.704,216.079 109.320 C 216.702 109.936,217.377 110.338,217.578 110.213 C 217.780 110.089,218.075 110.198,218.234 110.455 C 218.426 110.766,218.334 110.825,217.962 110.632 C 217.653 110.472,217.749 110.624,218.176 110.970 C 218.604 111.317,219.146 111.600,219.382 111.600 C 219.617 111.600,219.988 112.005,220.205 112.500 C 220.422 112.995,220.870 113.405,221.200 113.411 C 222.122 113.427,222.844 114.006,222.545 114.489 C 222.395 114.732,222.461 114.810,222.694 114.665 C 222.924 114.523,223.403 114.850,223.757 115.391 C 224.151 115.992,224.635 116.285,225.001 116.144 C 225.353 116.009,225.600 116.140,225.600 116.461 C 225.600 116.960,227.028 118.151,227.667 118.186 C 227.813 118.194,228.083 118.364,228.267 118.564 C 228.465 118.781,228.358 118.791,228.000 118.587 C 227.478 118.291,227.473 118.336,227.964 118.941 C 228.274 119.324,228.767 119.545,229.059 119.433 C 229.351 119.321,229.548 119.447,229.495 119.714 C 229.443 119.981,229.622 120.156,229.892 120.103 C 230.163 120.049,230.678 120.452,231.036 120.999 C 231.394 121.546,231.815 121.914,231.971 121.818 C 232.127 121.722,232.507 121.993,232.815 122.421 C 233.124 122.850,233.572 123.200,233.812 123.200 C 234.051 123.200,234.596 123.483,235.024 123.830 C 235.451 124.176,235.530 124.321,235.200 124.153 C 234.683 123.889,234.676 123.941,235.149 124.523 C 235.451 124.895,236.036 125.200,236.449 125.200 C 236.883 125.200,237.200 125.481,237.200 125.867 C 237.200 126.233,237.301 126.432,237.424 126.309 C 237.548 126.186,238.133 126.528,238.724 127.070 C 239.316 127.612,240.085 128.313,240.434 128.628 C 240.782 128.943,241.258 129.200,241.491 129.200 C 241.724 129.200,242.018 129.470,242.145 129.800 C 242.271 130.130,242.651 130.400,242.987 130.400 C 243.324 130.400,243.600 130.681,243.600 131.024 C 243.600 131.367,243.772 131.541,243.981 131.412 C 244.454 131.119,246.035 132.420,245.756 132.871 C 245.644 133.052,245.751 133.200,245.993 133.200 C 246.235 133.200,246.813 133.554,247.277 133.986 C 247.741 134.419,248.278 134.675,248.470 134.556 C 248.663 134.438,248.770 134.571,248.710 134.852 C 248.649 135.133,248.825 135.394,249.100 135.432 C 249.375 135.469,249.780 135.523,250.000 135.550 C 250.220 135.578,250.355 135.817,250.300 136.082 C 250.245 136.347,250.470 136.580,250.800 136.600 C 251.130 136.620,251.348 136.875,251.284 137.167 C 251.211 137.498,251.397 137.610,251.779 137.463 C 252.139 137.325,252.351 137.429,252.295 137.714 C 252.243 137.981,252.438 138.151,252.730 138.090 C 253.021 138.030,253.145 138.166,253.004 138.393 C 252.864 138.620,253.076 138.911,253.475 139.039 C 254.921 139.505,255.969 140.127,255.791 140.415 C 255.691 140.577,255.911 140.955,256.281 141.255 C 256.852 141.718,256.903 141.716,256.615 141.238 C 256.385 140.857,256.425 140.768,256.738 140.962 C 256.992 141.119,257.200 141.501,257.200 141.811 C 257.200 142.173,257.439 142.283,257.866 142.119 C 258.232 141.979,258.435 142.030,258.318 142.232 C 258.200 142.434,258.666 143.046,259.352 143.592 C 260.038 144.138,260.420 144.309,260.200 143.973 C 259.980 143.637,260.204 143.821,260.698 144.381 C 261.192 144.941,261.597 145.258,261.598 145.084 C 261.599 144.911,261.853 145.001,262.162 145.284 C 262.471 145.568,262.696 145.980,262.662 146.200 C 262.628 146.420,262.933 146.543,263.340 146.473 C 263.763 146.401,263.973 146.521,263.829 146.753 C 263.573 147.167,265.128 148.248,265.730 148.075 C 265.911 148.023,265.975 148.120,265.872 148.290 C 265.646 148.663,266.625 149.641,266.925 149.342 C 267.041 149.226,267.344 149.522,267.600 150.000 C 267.856 150.478,268.163 150.771,268.282 150.651 C 268.402 150.532,268.831 150.831,269.236 151.317 C 269.642 151.803,269.979 152.055,269.987 151.878 C 269.994 151.700,270.472 152.060,271.050 152.678 C 271.627 153.295,271.942 153.523,271.750 153.184 C 271.557 152.846,271.850 153.072,272.400 153.688 C 272.950 154.304,273.582 154.806,273.804 154.804 C 274.026 154.802,274.437 155.167,274.717 155.616 C 274.997 156.064,275.428 156.306,275.675 156.154 C 275.931 155.995,276.013 156.055,275.865 156.294 C 275.723 156.524,276.055 157.006,276.603 157.365 C 277.152 157.725,277.605 157.879,277.612 157.709 C 277.619 157.539,277.810 157.719,278.037 158.108 C 278.264 158.498,278.646 158.695,278.886 158.547 C 279.128 158.397,279.211 158.459,279.071 158.685 C 278.795 159.132,281.097 161.068,281.692 160.890 C 281.894 160.830,281.968 160.929,281.856 161.110 C 281.743 161.291,282.019 161.669,282.468 161.949 C 283.138 162.368,283.234 162.364,283.008 161.930 C 282.857 161.638,283.243 161.987,283.866 162.704 C 284.490 163.421,285.182 164.006,285.404 164.004 C 285.626 164.002,286.037 164.367,286.317 164.816 C 286.597 165.264,287.000 165.523,287.213 165.392 C 287.426 165.260,287.600 165.428,287.600 165.764 C 287.600 166.169,287.824 166.289,288.266 166.119 C 288.699 165.953,288.835 166.020,288.654 166.312 C 288.333 166.832,289.740 167.712,290.212 167.286 C 290.386 167.129,290.406 167.213,290.258 167.472 C 289.911 168.076,290.650 168.598,292.067 168.750 C 292.323 168.778,292.424 168.909,292.291 169.042 C 292.158 169.175,292.515 169.715,293.083 170.242 C 294.230 171.305,294.586 171.455,294.174 170.700 C 294.024 170.425,294.509 170.876,295.251 171.703 C 295.993 172.529,296.836 173.204,297.124 173.203 C 297.422 173.201,297.523 173.401,297.358 173.668 C 297.164 173.982,297.286 174.053,297.730 173.882 C 298.128 173.729,298.353 173.814,298.295 174.096 C 298.243 174.353,298.395 174.572,298.633 174.582 C 298.871 174.592,299.569 175.140,300.183 175.800 C 300.797 176.460,301.052 176.654,300.750 176.230 C 300.212 175.477,300.224 175.476,301.300 176.176 C 302.373 176.874,302.894 177.544,301.900 176.947 C 301.556 176.740,301.570 176.856,301.945 177.319 C 302.245 177.689,302.650 177.893,302.845 177.772 C 303.040 177.651,303.200 177.754,303.200 178.000 C 303.200 178.246,303.384 178.333,303.610 178.194 C 303.835 178.055,303.970 178.179,303.910 178.470 C 303.849 178.762,304.038 178.951,304.330 178.890 C 304.621 178.830,304.745 178.965,304.606 179.191 C 304.466 179.417,304.768 179.761,305.276 179.955 C 305.784 180.149,306.543 180.689,306.962 181.154 C 307.381 181.619,307.884 182.000,308.079 182.000 C 308.458 182.000,308.813 182.256,310.420 183.690 C 310.980 184.191,311.073 184.330,310.625 184.000 C 310.178 183.670,310.439 184.150,311.206 185.066 C 311.973 185.983,312.836 186.748,313.124 186.766 C 313.412 186.785,313.542 186.971,313.412 187.180 C 313.283 187.389,313.557 187.763,314.020 188.011 C 314.517 188.277,314.770 188.701,314.638 189.046 C 314.514 189.367,314.669 189.728,314.981 189.848 C 315.294 189.968,315.460 190.298,315.352 190.582 C 315.243 190.865,315.447 191.390,315.806 191.748 C 316.164 192.107,316.332 192.400,316.180 192.400 C 316.027 192.400,316.107 192.647,316.358 192.949 C 316.609 193.251,316.701 193.791,316.564 194.149 C 316.427 194.507,316.508 194.800,316.745 194.800 C 316.981 194.800,317.070 195.072,316.943 195.405 C 316.815 195.738,316.872 196.233,317.069 196.505 C 317.451 197.033,317.482 202.418,317.106 203.033 C 316.982 203.235,316.818 204.120,316.741 205.000 C 316.663 205.880,316.365 206.848,316.077 207.152 C 315.789 207.455,315.644 207.937,315.753 208.222 C 315.863 208.508,315.693 208.957,315.376 209.220 C 315.059 209.483,314.800 210.137,314.800 210.673 C 314.800 211.209,314.640 211.548,314.444 211.427 C 314.046 211.181,312.667 213.090,312.667 213.888 C 312.667 214.169,312.575 214.308,312.463 214.196 C 312.184 213.918,310.400 215.633,310.400 216.179 C 310.400 216.420,309.770 216.957,309.000 217.372 C 308.230 217.787,307.600 218.288,307.600 218.487 C 307.600 218.685,307.440 218.749,307.245 218.628 C 307.050 218.508,306.797 218.767,306.683 219.204 C 306.561 219.670,306.137 220.000,305.661 220.000 C 305.213 220.000,304.719 220.208,304.562 220.462 C 304.373 220.767,304.454 220.814,304.800 220.600 C 305.146 220.386,305.227 220.433,305.038 220.738 C 304.881 220.992,304.483 221.200,304.153 221.200 C 303.823 221.200,303.667 221.384,303.806 221.610 C 303.945 221.835,303.911 221.994,303.730 221.963 C 302.906 221.820,302.400 222.045,302.400 222.554 C 302.400 222.859,301.905 223.430,301.300 223.824 C 300.224 224.524,300.212 224.523,300.750 223.770 C 301.052 223.346,300.797 223.540,300.183 224.200 C 299.569 224.860,298.871 225.408,298.633 225.418 C 298.395 225.428,298.243 225.647,298.295 225.904 C 298.353 226.186,298.128 226.271,297.730 226.118 C 297.286 225.947,297.164 226.018,297.358 226.332 C 297.532 226.613,297.398 226.800,297.024 226.800 C 296.681 226.800,296.400 227.100,296.400 227.467 C 296.400 227.833,296.283 228.017,296.140 227.874 C 295.998 227.731,295.437 228.106,294.893 228.707 C 294.350 229.308,294.028 229.575,294.177 229.300 C 294.585 228.546,294.231 228.694,293.083 229.758 C 292.515 230.285,292.137 230.804,292.245 230.912 C 292.353 231.019,291.878 231.304,291.190 231.543 C 290.487 231.788,290.054 232.163,290.200 232.400 C 290.343 232.631,290.311 232.794,290.130 232.763 C 289.276 232.614,288.800 232.855,288.800 233.433 C 288.800 233.782,288.575 233.988,288.300 233.893 C 288.025 233.797,287.332 234.202,286.759 234.794 C 286.187 235.385,285.410 235.987,285.034 236.132 C 284.657 236.276,284.464 236.580,284.604 236.807 C 284.745 237.034,284.679 237.170,284.458 237.110 C 284.237 237.049,283.760 237.360,283.399 237.800 C 283.037 238.240,282.877 238.340,283.043 238.021 C 283.219 237.684,282.813 237.821,282.068 238.352 C 281.365 238.852,280.892 239.425,281.016 239.626 C 281.140 239.827,280.933 239.872,280.555 239.727 C 280.123 239.562,279.966 239.621,280.130 239.887 C 280.274 240.119,280.089 240.555,279.719 240.855 C 279.187 241.286,279.113 241.290,279.365 240.871 C 279.540 240.580,278.809 241.012,277.742 241.830 C 276.674 242.649,275.849 243.485,275.910 243.689 C 275.970 243.893,275.841 243.949,275.623 243.814 C 275.405 243.679,274.997 243.936,274.717 244.384 C 274.437 244.833,273.970 245.200,273.680 245.200 C 273.390 245.200,273.230 245.335,273.324 245.500 C 273.419 245.665,272.934 246.246,272.248 246.792 C 271.326 247.525,271.157 247.579,271.600 247.000 C 271.930 246.568,271.435 246.812,270.500 247.541 C 269.565 248.271,268.800 249.043,268.800 249.257 C 268.800 249.472,268.629 249.542,268.420 249.412 C 268.211 249.283,267.842 249.548,267.600 250.000 C 267.358 250.452,267.034 250.746,266.880 250.653 C 266.477 250.410,265.594 251.461,265.924 251.791 C 266.076 251.942,266.020 252.013,265.800 251.948 C 265.114 251.745,263.562 252.814,263.854 253.288 C 264.030 253.573,263.907 253.650,263.516 253.500 C 263.123 253.349,262.716 253.609,262.390 254.218 C 262.109 254.743,261.746 255.090,261.583 254.990 C 261.421 254.889,260.990 255.261,260.626 255.816 C 260.262 256.371,259.786 256.715,259.567 256.579 C 259.348 256.444,258.520 257.023,257.727 257.867 C 256.934 258.710,256.436 259.130,256.619 258.800 C 256.907 258.284,256.859 258.277,256.281 258.745 C 255.911 259.045,255.691 259.423,255.791 259.585 C 255.969 259.873,254.921 260.495,253.475 260.961 C 253.076 261.089,252.864 261.380,253.004 261.607 C 253.145 261.834,253.021 261.970,252.730 261.910 C 252.438 261.849,252.249 262.038,252.310 262.330 C 252.370 262.621,252.265 262.764,252.075 262.646 C 251.590 262.347,249.937 263.575,250.217 264.027 C 250.344 264.232,250.257 264.423,250.024 264.450 C 249.791 264.478,249.375 264.531,249.100 264.568 C 248.825 264.606,248.660 264.898,248.733 265.218 C 248.807 265.538,248.738 265.671,248.581 265.514 C 248.181 265.114,246.725 265.955,247.012 266.420 C 247.142 266.629,246.877 266.800,246.424 266.800 C 245.971 266.800,245.645 267.025,245.700 267.300 C 245.755 267.575,245.575 267.755,245.300 267.700 C 245.025 267.645,244.800 267.889,244.800 268.243 C 244.800 268.659,244.582 268.802,244.179 268.647 C 243.838 268.516,243.656 268.567,243.775 268.759 C 244.041 269.190,243.026 270.092,242.673 269.739 C 242.533 269.600,242.306 269.780,242.168 270.140 C 242.029 270.501,241.767 270.703,241.585 270.591 C 241.404 270.479,241.017 270.705,240.727 271.095 C 240.437 271.485,239.435 272.300,238.500 272.907 C 237.565 273.515,236.800 274.168,236.800 274.359 C 236.800 274.550,236.422 274.806,235.960 274.926 C 235.425 275.066,235.229 275.324,235.422 275.635 C 235.615 275.948,235.557 276.021,235.259 275.836 C 234.999 275.676,234.689 275.825,234.554 276.175 C 234.422 276.519,234.053 276.800,233.734 276.800 C 233.414 276.800,233.264 276.980,233.400 277.200 C 233.536 277.420,233.367 277.600,233.024 277.600 C 232.681 277.600,232.400 277.791,232.400 278.024 C 232.400 278.257,232.240 278.348,232.044 278.227 C 231.848 278.106,231.394 278.454,231.036 279.001 C 230.678 279.548,230.163 279.951,229.892 279.897 C 229.622 279.844,229.438 280.004,229.484 280.253 C 229.531 280.502,229.261 280.682,228.884 280.653 C 228.508 280.624,228.249 280.838,228.310 281.130 C 228.370 281.421,228.241 281.549,228.023 281.414 C 227.805 281.279,227.397 281.536,227.117 281.984 C 226.837 282.433,226.381 282.800,226.104 282.800 C 225.827 282.800,225.600 283.081,225.600 283.424 C 225.600 283.767,225.422 283.937,225.205 283.803 C 224.988 283.669,224.414 283.928,223.930 284.380 C 223.445 284.831,222.892 285.200,222.701 285.200 C 222.509 285.200,222.456 285.368,222.583 285.572 C 222.849 286.004,222.074 286.574,221.200 286.589 C 220.870 286.595,220.422 287.005,220.205 287.500 C 219.988 287.995,219.617 288.400,219.382 288.400 C 219.146 288.400,218.604 288.683,218.176 289.030 C 217.749 289.376,217.670 289.527,218.000 289.366 C 218.347 289.196,218.462 289.223,218.272 289.431 C 218.091 289.628,217.641 289.792,217.272 289.795 C 216.902 289.798,216.434 290.177,216.232 290.638 C 216.029 291.099,215.338 291.675,214.695 291.917 C 214.053 292.160,213.631 292.527,213.759 292.734 C 213.887 292.941,213.678 293.085,213.296 293.055 C 212.913 293.025,212.645 293.225,212.700 293.500 C 212.755 293.775,212.545 294.000,212.233 294.000 C 211.922 294.000,211.278 294.495,210.804 295.100 C 210.329 295.705,210.059 295.930,210.203 295.600 C 210.347 295.270,210.045 295.453,209.532 296.006 C 208.576 297.038,208.311 297.200,207.576 297.200 C 207.343 297.200,207.264 297.380,207.400 297.600 C 207.536 297.820,207.377 298.000,207.047 298.000 C 206.717 298.000,206.319 298.208,206.162 298.462 C 205.973 298.767,206.054 298.814,206.400 298.600 C 206.757 298.379,206.827 298.432,206.621 298.765 C 206.455 299.034,206.084 299.164,205.796 299.054 C 205.508 298.943,204.943 299.291,204.541 299.826 C 204.139 300.362,203.506 300.800,203.134 300.800 C 202.762 300.800,202.196 301.061,201.876 301.381 C 201.557 301.700,201.196 301.862,201.074 301.741 C 200.953 301.619,200.616 301.670,200.327 301.854 C 199.763 302.211,199.549 302.272,198.576 302.350 C 198.213 302.379,198.072 302.592,198.238 302.862 C 198.415 303.148,198.348 303.215,198.062 303.038 C 197.808 302.881,197.375 302.896,197.100 303.070 C 196.432 303.494,187.861 303.550,187.578 303.132 C 187.455 302.952,186.870 302.764,186.278 302.715 C 185.685 302.666,185.200 302.473,185.200 302.286 C 185.200 302.099,184.861 302.054,184.447 302.185 C 183.975 302.335,183.608 302.199,183.463 301.819 C 183.328 301.467,182.969 301.314,182.607 301.453 C 182.232 301.597,181.568 301.277,180.943 300.652 C 180.371 300.080,179.745 299.710,179.552 299.830 C 179.358 299.949,179.200 299.846,179.200 299.600 C 179.200 299.354,179.008 299.272,178.773 299.417 C 178.538 299.562,178.247 299.303,178.126 298.840 C 178.006 298.378,177.628 298.000,177.287 298.000 C 176.946 298.000,176.773 297.893,176.904 297.763 C 177.034 297.632,176.209 296.618,175.070 295.508 C 173.932 294.399,173.270 293.619,173.600 293.775 C 173.933 293.933,173.877 293.796,173.473 293.466 C 173.074 293.140,172.754 292.768,172.762 292.641 C 172.787 292.276,172.377 291.067,171.971 290.305 C 171.767 289.923,171.600 289.338,171.600 289.005 C 171.600 288.672,171.401 288.400,171.157 288.400 C 170.914 288.400,170.810 288.151,170.927 287.846 C 171.044 287.541,170.919 286.956,170.650 286.546 C 169.838 285.310,170.141 278.088,171.138 274.900 C 171.361 274.185,171.454 273.600,171.344 273.600 C 171.233 273.600,171.436 273.307,171.794 272.948 C 172.153 272.590,172.356 272.063,172.247 271.778 C 172.137 271.492,172.307 271.043,172.624 270.780 C 172.941 270.517,173.203 270.099,173.207 269.851 C 173.211 269.603,173.660 268.977,174.205 268.459 C 174.751 267.942,175.094 267.353,174.969 267.150 C 174.843 266.946,174.889 266.822,175.070 266.873 C 175.252 266.924,176.030 266.356,176.800 265.611 C 177.570 264.866,177.947 264.406,177.638 264.590 C 177.255 264.817,177.169 264.775,177.366 264.455 C 177.525 264.198,177.820 264.089,178.022 264.213 C 178.223 264.338,178.913 263.903,179.554 263.247 C 180.196 262.591,180.812 262.145,180.924 262.257 C 181.035 262.369,181.246 262.084,181.392 261.624 C 181.538 261.165,181.826 260.892,182.032 261.020 C 182.429 261.265,183.406 260.472,183.533 259.800 C 183.575 259.580,183.894 259.399,184.242 259.397 C 184.590 259.396,185.218 258.971,185.638 258.453 C 186.057 257.935,186.413 257.666,186.428 257.856 C 186.444 258.045,186.596 257.841,186.768 257.402 C 186.939 256.963,187.421 256.603,187.840 256.602 C 188.258 256.601,188.555 256.375,188.500 256.100 C 188.445 255.825,188.681 255.600,189.024 255.600 C 189.367 255.600,189.548 255.439,189.426 255.243 C 189.305 255.046,189.654 254.773,190.203 254.635 C 190.751 254.497,191.200 254.118,191.200 253.792 C 191.200 253.467,191.560 253.200,192.000 253.200 C 192.440 253.200,192.801 253.065,192.801 252.900 C 192.802 252.735,193.329 252.247,193.973 251.816 C 194.616 251.385,195.053 250.885,194.942 250.706 C 194.831 250.527,194.889 250.419,195.070 250.465 C 195.429 250.558,198.400 248.837,198.400 248.537 C 198.400 248.436,198.175 248.481,197.900 248.638 C 197.625 248.795,197.760 248.558,198.200 248.113 C 198.640 247.668,199.072 247.367,199.160 247.445 C 199.249 247.524,199.577 247.275,199.890 246.894 C 200.229 246.480,200.335 246.443,200.153 246.800 C 199.890 247.315,199.941 247.323,200.519 246.855 C 200.889 246.555,201.074 246.105,200.931 245.855 C 200.789 245.605,200.818 245.532,200.996 245.694 C 201.175 245.855,201.577 245.675,201.890 245.294 C 202.266 244.835,202.370 244.803,202.195 245.200 C 202.050 245.530,202.296 245.350,202.742 244.800 C 203.189 244.250,203.704 243.800,203.887 243.800 C 204.432 243.800,206.400 242.120,206.400 241.655 C 206.400 241.419,206.646 241.319,206.946 241.435 C 207.251 241.552,207.985 241.061,208.610 240.322 C 209.225 239.595,209.893 239.049,210.094 239.110 C 210.295 239.170,210.363 239.064,210.245 238.874 C 210.128 238.683,210.609 238.104,211.316 237.587 C 212.366 236.819,212.493 236.789,212.012 237.424 C 211.615 237.948,211.809 237.876,212.611 237.200 C 213.263 236.650,213.858 236.065,213.932 235.900 C 214.006 235.735,214.282 235.600,214.544 235.600 C 215.163 235.600,216.412 234.146,216.079 233.813 C 215.939 233.672,216.110 233.667,216.458 233.801 C 216.867 233.958,217.456 233.611,218.120 232.822 C 218.686 232.150,219.351 231.600,219.598 231.600 C 219.845 231.600,219.948 231.440,219.827 231.244 C 219.706 231.048,220.240 230.588,221.013 230.221 C 221.786 229.854,222.314 229.384,222.186 229.177 C 221.987 228.856,222.432 228.658,223.210 228.723 C 223.325 228.732,223.865 228.378,224.410 227.935 C 224.954 227.493,225.130 227.271,224.800 227.442 C 224.285 227.710,224.277 227.659,224.745 227.081 C 225.045 226.711,225.423 226.491,225.585 226.591 C 225.950 226.816,227.600 225.318,227.600 224.761 C 227.600 224.536,227.781 224.465,228.003 224.602 C 228.224 224.739,228.514 224.569,228.646 224.225 C 228.778 223.881,229.166 223.600,229.509 223.600 C 229.853 223.600,230.009 223.476,229.857 223.324 C 229.705 223.172,230.048 222.857,230.618 222.624 C 231.355 222.323,212.956 222.200,167.128 222.200 C 131.637 222.200,101.880 222.083,101.000 221.940 C 98.624 221.554,98.267 221.444,97.717 220.936 C 97.440 220.680,96.876 220.560,96.462 220.668 C 96.021 220.783,95.616 220.618,95.482 220.270 C 95.357 219.943,94.717 219.557,94.060 219.413 C 93.404 219.269,92.763 218.881,92.636 218.550 C 92.509 218.220,92.224 218.061,92.003 218.198 C 91.781 218.335,91.600 218.246,91.600 218.000 C 91.600 217.754,91.392 217.681,91.138 217.838 C 90.852 218.015,90.785 217.948,90.962 217.661 C 91.136 217.380,90.847 217.046,90.224 216.809 C 89.661 216.595,89.200 216.145,89.200 215.810 C 89.200 215.474,89.030 215.200,88.823 215.200 C 88.615 215.200,88.132 214.670,87.749 214.022 C 87.366 213.374,86.951 212.905,86.827 212.981 C 86.702 213.056,86.254 212.656,85.832 212.093 C 85.343 211.441,85.270 211.176,85.632 211.364 C 85.987 211.549,85.962 211.461,85.565 211.130 C 85.216 210.838,85.014 210.350,85.117 210.044 C 85.242 209.671,85.133 209.594,84.784 209.810 C 84.413 210.039,84.336 209.945,84.515 209.478 C 84.652 209.119,84.593 208.719,84.383 208.589 C 84.172 208.459,84.000 207.924,84.000 207.400 C 84.000 206.876,83.817 206.334,83.593 206.196 C 83.370 206.058,83.291 205.777,83.417 205.572 C 83.544 205.368,83.470 205.200,83.253 205.200 C 83.036 205.200,82.927 204.660,83.010 204.000 C 83.094 203.340,83.029 202.800,82.867 202.800 C 82.480 202.800,82.589 198.192,83.019 196.400 C 83.204 195.630,83.381 194.730,83.414 194.400 C 83.446 194.070,83.777 193.117,84.149 192.282 C 84.521 191.448,84.726 190.604,84.604 190.407 C 84.483 190.210,84.642 189.903,84.959 189.725 C 85.276 189.546,85.595 189.151,85.668 188.846 C 85.740 188.541,86.202 187.844,86.693 187.296 C 87.183 186.748,87.485 186.138,87.363 185.940 C 87.241 185.742,87.296 185.630,87.485 185.690 C 87.994 185.852,89.998 183.737,89.676 183.378 C 89.524 183.210,89.613 183.194,89.873 183.343 C 90.133 183.492,90.599 183.252,90.909 182.809 C 91.218 182.367,91.591 182.124,91.736 182.269 C 91.881 182.414,92.000 182.223,92.000 181.843 C 92.000 181.463,92.173 181.260,92.385 181.391 C 92.597 181.522,93.092 181.308,93.485 180.915 C 93.878 180.522,94.380 180.197,94.600 180.193 C 95.378 180.181,98.000 179.134,98.000 178.836 C 98.000 178.669,98.225 178.513,98.500 178.488 C 98.775 178.463,99.540 178.312,100.200 178.152 C 100.860 177.992,130.290 177.803,165.600 177.731 C 233.099 177.593,230.853 177.623,229.966 176.883 C 229.655 176.623,228.606 175.696,227.635 174.822 C 226.665 173.948,225.740 173.313,225.581 173.412 C 225.421 173.511,225.045 173.289,224.745 172.919 C 224.370 172.456,224.356 172.340,224.700 172.547 C 225.666 173.127,225.186 172.540,223.943 171.621 C 223.251 171.110,222.811 170.894,222.964 171.141 C 223.141 171.428,223.018 171.505,222.623 171.354 C 222.283 171.223,222.065 171.000,222.139 170.858 C 222.274 170.599,220.975 169.200,220.600 169.200 C 220.490 169.200,220.209 169.200,219.976 169.200 C 219.743 169.200,219.664 169.020,219.800 168.800 C 219.936 168.580,219.845 168.400,219.598 168.400 C 219.351 168.400,218.686 167.850,218.120 167.178 C 217.553 166.504,216.847 166.050,216.546 166.165 C 216.232 166.286,216.000 166.116,216.000 165.764 C 216.000 165.428,215.820 165.264,215.600 165.400 C 215.380 165.536,215.200 165.367,215.200 165.024 C 215.200 164.681,215.012 164.400,214.783 164.400 C 214.554 164.400,213.987 164.046,213.523 163.614 C 213.059 163.181,212.539 162.914,212.367 163.020 C 212.196 163.126,211.925 163.002,211.766 162.745 C 211.573 162.433,211.651 162.384,212.000 162.600 C 212.346 162.814,212.427 162.767,212.238 162.462 C 212.081 162.208,211.603 162.000,211.176 162.000 C 210.749 162.000,210.400 161.730,210.400 161.400 C 210.400 161.070,210.252 160.845,210.072 160.900 C 209.891 160.955,209.306 160.512,208.772 159.915 C 208.237 159.318,207.530 158.778,207.200 158.715 C 206.870 158.652,206.363 158.282,206.073 157.893 C 205.783 157.505,205.350 157.307,205.111 157.455 C 204.858 157.611,204.791 157.538,204.949 157.282 C 205.101 157.037,204.817 156.632,204.311 156.373 C 203.810 156.116,203.069 155.522,202.665 155.053 C 202.261 154.584,202.050 154.470,202.195 154.800 C 202.370 155.197,202.266 155.165,201.890 154.706 C 201.577 154.325,201.175 154.145,200.996 154.306 C 200.818 154.468,200.789 154.395,200.931 154.145 C 201.074 153.895,200.889 153.445,200.519 153.145 C 199.941 152.677,199.890 152.685,200.153 153.200 C 200.321 153.530,200.176 153.451,199.830 153.024 C 199.483 152.596,199.200 152.379,199.200 152.539 C 199.200 152.700,198.949 152.599,198.642 152.316 C 198.335 152.032,198.155 151.683,198.241 151.539 C 198.446 151.201,195.524 149.415,195.000 149.558 C 194.780 149.618,194.722 149.545,194.871 149.396 C 195.248 149.018,192.644 146.800,191.824 146.800 C 191.455 146.800,191.264 146.621,191.399 146.402 C 191.534 146.183,191.185 145.794,190.623 145.537 C 190.060 145.281,189.600 144.920,189.600 144.736 C 189.600 144.551,189.375 144.400,189.100 144.400 C 188.825 144.399,188.077 143.949,187.438 143.400 C 186.799 142.850,186.418 142.400,186.592 142.400 C 186.766 142.400,186.397 141.998,185.773 141.507 C 185.148 141.016,184.406 140.611,184.123 140.607 C 183.840 140.603,183.619 140.451,183.631 140.270 C 183.643 140.088,183.236 139.599,182.726 139.182 C 182.217 138.765,181.497 138.131,181.128 137.771 C 180.736 137.391,180.235 137.246,179.928 137.423 C 179.637 137.591,179.520 137.594,179.667 137.431 C 180.037 137.018,178.463 135.514,177.975 135.815 C 177.758 135.950,177.627 135.911,177.684 135.730 C 177.818 135.300,175.500 132.982,175.070 133.116 C 174.889 133.173,174.843 133.054,174.968 132.852 C 175.093 132.649,174.926 132.381,174.598 132.254 C 174.269 132.128,174.000 131.659,174.000 131.213 C 174.000 130.766,173.799 130.445,173.553 130.500 C 173.307 130.555,173.047 130.243,172.975 129.807 C 172.903 129.371,172.653 128.951,172.419 128.873 C 172.186 128.795,172.102 128.559,172.232 128.348 C 172.362 128.137,172.242 127.692,171.966 127.359 C 171.689 127.025,171.414 126.300,171.355 125.746 C 171.296 125.193,171.042 124.491,170.790 124.188 C 170.537 123.884,170.447 123.447,170.589 123.218 C 170.731 122.988,170.683 122.800,170.482 122.800 C 170.273 122.800,170.184 120.866,170.273 118.300 C 170.465 112.819,170.504 112.417,170.826 112.616 C 170.967 112.703,171.303 112.015,171.575 111.087 C 171.846 110.159,172.413 108.804,172.835 108.076 C 173.274 107.318,173.387 106.860,173.101 107.006 C 172.825 107.145,172.915 107.001,173.300 106.686 C 173.685 106.370,174.000 105.913,174.000 105.670 C 174.000 105.427,174.360 105.035,174.800 104.800 C 175.240 104.565,175.600 104.137,175.600 103.850 C 175.600 103.563,176.060 103.119,176.623 102.863 C 177.233 102.584,177.531 102.211,177.361 101.936 C 177.179 101.643,177.253 101.586,177.565 101.778 C 177.876 101.971,178.134 101.775,178.274 101.240 C 178.394 100.778,178.808 100.400,179.192 100.400 C 179.576 100.400,180.397 99.905,181.015 99.300 C 181.633 98.695,181.983 98.470,181.792 98.800 C 181.505 99.298,181.551 99.315,182.060 98.903 C 182.397 98.630,182.788 98.521,182.927 98.661 C 183.067 98.800,183.297 98.613,183.438 98.245 C 183.606 97.808,183.955 97.659,184.447 97.815 C 184.861 97.946,185.200 97.901,185.200 97.714 C 185.200 97.527,185.695 97.334,186.300 97.284 C 186.905 97.234,187.449 97.047,187.509 96.869 C 187.649 96.453,196.437 96.509,197.100 96.930 " stroke="none" fill="#249464" fill-rule="evenodd"></path><path id="path1" d="M184.200 40.800 C 183.908 41.273,184.299 41.273,185.400 40.800 C 186.171 40.469,186.169 40.455,185.324 40.428 C 184.842 40.413,184.336 40.580,184.200 40.800 M214.600 40.800 C 215.701 41.273,216.092 41.273,215.800 40.800 C 215.664 40.580,215.158 40.413,214.676 40.428 C 213.831 40.455,213.829 40.469,214.600 40.800 M165.256 43.659 C 164.517 43.872,163.977 44.104,164.056 44.175 C 164.356 44.446,166.800 43.893,166.800 43.555 C 166.800 43.360,166.755 43.216,166.700 43.236 C 166.645 43.256,165.995 43.446,165.256 43.659 M233.200 43.655 C 233.200 43.845,233.650 44.000,234.200 44.000 C 234.750 44.000,235.200 43.931,235.200 43.847 C 235.200 43.762,234.750 43.607,234.200 43.502 C 233.650 43.397,233.200 43.466,233.200 43.655 M106.443 70.023 C 105.917 70.461,105.573 70.906,105.679 71.012 C 105.784 71.118,106.395 70.753,107.035 70.203 C 107.676 69.652,108.020 69.207,107.800 69.214 C 107.580 69.221,106.970 69.585,106.443 70.023 M87.311 86.100 C 86.630 86.981,86.317 87.830,86.970 87.024 C 87.317 86.597,87.825 86.104,88.100 85.930 C 88.427 85.722,88.444 85.610,88.149 85.606 C 87.901 85.603,87.524 85.825,87.311 86.100 M203.424 99.787 C 204.442 100.558,205.024 100.567,204.257 99.800 C 203.927 99.470,203.430 99.200,203.152 99.200 C 202.869 99.200,202.988 99.458,203.424 99.787 M72.400 103.200 C 71.912 103.885,71.603 104.536,71.713 104.646 C 71.823 104.756,72.312 104.285,72.800 103.600 C 73.288 102.915,73.597 102.264,73.487 102.154 C 73.377 102.044,72.888 102.515,72.400 103.200 M210.353 104.691 C 210.854 105.649,212.321 106.613,212.701 106.232 C 212.829 106.105,212.715 106.000,212.448 106.000 C 212.180 106.000,211.495 105.505,210.925 104.900 C 210.067 103.989,209.969 103.953,210.353 104.691 M328.881 105.982 C 329.433 106.866,329.822 106.755,329.462 105.817 C 329.332 105.478,329.038 105.200,328.809 105.200 C 328.546 105.200,328.572 105.487,328.881 105.982 M221.600 113.441 C 221.600 113.888,223.201 115.332,223.436 115.097 C 223.525 115.009,223.148 114.514,222.598 113.999 C 222.049 113.483,221.600 113.232,221.600 113.441 M336.403 116.490 C 336.401 116.650,336.759 117.370,337.199 118.090 C 337.638 118.811,337.996 119.220,337.996 119.000 C 337.995 118.780,337.637 118.060,337.200 117.400 C 336.763 116.740,336.404 116.331,336.403 116.490 M233.770 123.552 C 233.890 123.745,234.395 124.006,234.894 124.132 C 235.768 124.352,235.773 124.340,235.024 123.780 C 234.164 123.138,233.432 123.004,233.770 123.552 M244.600 132.000 C 244.998 132.440,245.510 132.800,245.737 132.800 C 245.965 132.800,245.764 132.440,245.292 132.000 C 244.820 131.560,244.308 131.200,244.155 131.200 C 244.001 131.200,244.202 131.560,244.600 132.000 M254.543 139.800 C 254.873 140.130,255.370 140.400,255.648 140.400 C 255.931 140.400,255.812 140.142,255.376 139.813 C 254.358 139.042,253.776 139.033,254.543 139.800 M183.200 140.154 C 183.200 140.239,183.695 140.627,184.300 141.016 L 185.400 141.724 184.638 140.862 C 183.964 140.099,183.200 139.723,183.200 140.154 M187.438 143.400 C 188.077 143.949,188.763 144.399,188.962 144.400 C 189.161 144.400,188.801 143.950,188.162 143.400 C 187.523 142.851,186.837 142.401,186.638 142.400 C 186.439 142.400,186.799 142.850,187.438 143.400 M47.884 149.600 C 47.769 150.040,47.817 150.400,47.991 150.400 C 48.165 150.400,48.401 150.040,48.516 149.600 C 48.631 149.160,48.583 148.800,48.409 148.800 C 48.235 148.800,47.999 149.160,47.884 149.600 M351.484 149.600 C 351.599 150.040,351.835 150.400,352.009 150.400 C 352.183 150.400,352.231 150.040,352.116 149.600 C 352.001 149.160,351.765 148.800,351.591 148.800 C 351.417 148.800,351.369 149.160,351.484 149.600 M294.353 171.078 C 294.601 171.560,294.983 172.066,295.202 172.201 C 295.887 172.625,295.637 172.005,294.751 171.083 L 293.901 170.200 294.353 171.078 M230.181 177.170 C 230.307 177.373,230.093 177.625,229.705 177.730 C 229.317 177.835,229.576 177.901,230.280 177.877 C 231.277 177.843,231.465 177.719,231.131 177.316 C 230.644 176.730,229.832 176.604,230.181 177.170 M136.131 177.900 C 153.034 177.958,180.574 177.958,197.331 177.900 C 214.089 177.842,200.260 177.795,166.600 177.795 C 132.940 177.795,119.229 177.842,136.131 177.900 M309.200 182.911 C 309.200 182.987,309.785 183.478,310.500 184.001 C 311.304 184.590,311.584 184.687,311.233 184.255 C 310.700 183.599,309.200 182.607,309.200 182.911 M85.887 212.168 C 86.669 213.214,86.952 213.263,86.578 212.288 C 86.446 211.944,86.076 211.561,85.756 211.439 C 85.318 211.270,85.350 211.451,85.887 212.168 M135.900 222.300 C 152.675 222.358,180.125 222.358,196.900 222.300 C 213.675 222.242,199.950 222.195,166.400 222.195 C 132.850 222.195,119.125 222.242,135.900 222.300 M230.358 222.329 C 230.822 222.654,230.804 222.753,230.250 222.919 C 229.646 223.100,229.648 223.113,230.264 223.059 C 231.057 222.990,231.104 222.285,230.330 222.080 C 229.929 221.973,229.936 222.034,230.358 222.329 M301.200 223.470 L 300.200 224.492 301.300 223.800 C 301.905 223.419,302.400 222.949,302.400 222.754 C 302.400 222.270,302.340 222.305,301.200 223.470 M294.919 228.090 C 294.031 229.238,293.943 229.738,294.781 228.874 C 295.276 228.364,295.598 227.865,295.497 227.764 C 295.396 227.663,295.136 227.810,294.919 228.090 M210.700 238.052 C 209.875 238.726,209.200 239.474,209.200 239.714 C 209.200 239.954,209.567 239.757,210.016 239.275 C 210.464 238.794,210.961 238.400,211.119 238.400 C 211.278 238.400,211.632 238.040,211.907 237.600 C 212.552 236.568,212.488 236.592,210.700 238.052 M45.904 243.812 C 46.008 244.355,46.235 244.800,46.409 244.800 C 46.780 244.800,46.440 243.272,46.010 243.006 C 45.848 242.906,45.801 243.269,45.904 243.812 M353.726 243.500 C 353.589 243.885,353.404 244.335,353.315 244.500 C 353.226 244.665,353.322 244.800,353.530 244.800 C 353.737 244.800,353.993 244.350,354.098 243.800 C 354.318 242.649,354.093 242.468,353.726 243.500 M271.788 246.700 L 271.085 247.800 272.242 246.800 C 272.879 246.250,273.475 245.755,273.567 245.700 C 273.658 245.645,273.454 245.600,273.113 245.600 C 272.771 245.600,272.175 246.095,271.788 246.700 M260.289 255.605 C 259.526 256.496,259.384 256.981,259.998 256.601 C 260.390 256.359,261.346 254.800,261.103 254.800 C 261.034 254.800,260.668 255.162,260.289 255.605 M184.000 259.200 C 183.450 259.630,183.197 259.986,183.438 259.991 C 183.679 259.996,184.202 259.640,184.600 259.200 C 185.512 258.192,185.288 258.192,184.000 259.200 M254.400 260.200 C 253.766 260.963,254.361 260.956,255.376 260.187 C 255.998 259.717,256.028 259.600,255.525 259.600 C 255.180 259.600,254.674 259.870,254.400 260.200 M53.600 264.981 C 53.600 265.501,54.576 267.200,54.874 267.200 C 55.065 267.200,54.941 266.660,54.600 266.000 C 54.046 264.930,53.600 264.475,53.600 264.981 M345.419 265.963 C 345.067 266.643,344.935 267.200,345.126 267.200 C 345.531 267.200,346.517 265.184,346.244 264.911 C 346.142 264.809,345.771 265.282,345.419 265.963 M243.600 268.800 C 243.057 269.210,242.699 269.632,242.806 269.738 C 242.913 269.844,243.430 269.582,243.957 269.156 C 245.204 268.144,244.887 267.829,243.600 268.800 M334.538 285.817 C 334.178 286.755,334.567 286.866,335.119 285.982 C 335.428 285.487,335.454 285.200,335.191 285.200 C 334.962 285.200,334.668 285.478,334.538 285.817 M173.762 294.342 C 174.609 295.295,174.800 295.382,174.800 294.814 C 174.800 294.602,174.395 294.216,173.900 293.956 C 173.005 293.486,173.004 293.488,173.762 294.342 M72.400 296.475 C 72.400 296.820,72.670 297.326,73.000 297.600 C 73.763 298.234,73.756 297.639,72.987 296.624 C 72.517 296.002,72.400 295.972,72.400 296.475 M326.871 296.835 C 326.581 297.299,326.421 297.755,326.515 297.849 C 326.793 298.126,327.688 296.864,327.537 296.410 C 327.460 296.180,327.160 296.371,326.871 296.835 M324.744 299.566 C 324.225 299.987,323.893 300.424,324.006 300.538 C 324.119 300.652,324.633 300.307,325.148 299.773 C 326.268 298.609,326.057 298.501,324.744 299.566 M203.424 300.213 C 202.988 300.542,202.869 300.800,203.152 300.800 C 203.430 300.800,203.927 300.530,204.257 300.200 C 205.024 299.433,204.442 299.442,203.424 300.213 M80.683 306.788 C 81.054 307.221,81.438 307.496,81.536 307.398 C 81.774 307.159,80.795 306.000,80.355 306.000 C 80.164 306.000,80.311 306.355,80.683 306.788 M318.792 306.610 C 318.514 306.945,318.366 307.300,318.464 307.398 C 318.562 307.496,318.946 307.221,319.317 306.788 C 319.689 306.355,319.836 306.000,319.645 306.000 C 319.454 306.000,319.070 306.274,318.792 306.610 M313.722 312.166 C 313.105 312.697,312.690 313.196,312.800 313.274 C 312.910 313.352,313.518 312.917,314.150 312.308 C 315.565 310.945,315.259 310.843,313.722 312.166 M86.000 312.253 C 86.000 312.541,87.613 314.000,87.931 314.000 C 88.046 314.000,87.717 313.550,87.200 313.000 C 86.227 311.964,86.000 311.823,86.000 312.253 M106.456 329.966 C 106.975 330.387,107.466 330.665,107.548 330.585 C 107.789 330.345,106.497 329.200,105.984 329.200 C 105.724 329.200,105.936 329.545,106.456 329.966 M110.800 332.954 C 110.800 333.039,111.295 333.427,111.900 333.816 L 113.000 334.524 112.238 333.662 C 111.564 332.899,110.800 332.523,110.800 332.954 M287.762 333.662 L 287.000 334.524 288.100 333.816 C 289.234 333.086,289.449 332.800,288.862 332.800 C 288.676 332.800,288.181 333.188,287.762 333.662 M272.400 342.400 C 271.630 342.822,271.144 343.174,271.320 343.183 C 271.744 343.205,274.000 342.032,274.000 341.790 C 274.000 341.528,273.977 341.537,272.400 342.400 M164.046 355.749 C 164.485 356.243,166.800 356.767,166.800 356.372 C 166.800 356.167,166.455 356.000,166.033 356.000 C 165.611 356.000,164.936 355.881,164.533 355.736 C 164.130 355.591,163.911 355.597,164.046 355.749 M234.300 355.887 C 233.695 355.978,233.200 356.209,233.200 356.399 C 233.200 356.590,233.761 356.583,234.454 356.384 C 235.632 356.047,236.571 355.529,235.767 355.660 C 235.565 355.693,234.905 355.795,234.300 355.887 M214.600 359.200 C 213.829 359.531,213.831 359.545,214.676 359.572 C 215.158 359.587,215.664 359.420,215.800 359.200 C 216.092 358.727,215.701 358.727,214.600 359.200 M187.233 359.343 C 187.325 359.421,188.030 359.601,188.800 359.742 C 189.785 359.923,190.022 359.882,189.600 359.606 C 189.058 359.250,186.837 359.003,187.233 359.343 M210.400 359.606 C 209.978 359.882,210.215 359.923,211.200 359.742 C 212.925 359.425,213.251 359.198,211.967 359.206 C 211.435 359.209,210.730 359.389,210.400 359.606 " stroke="none" fill="#248c64" fill-rule="evenodd"></path><path id="path2" d="" stroke="none" fill="#289464" fill-rule="evenodd"></path><path id="path3" d="" stroke="none" fill="#289464" fill-rule="evenodd"></path><path id="path4" d="" stroke="none" fill="#289464" fill-rule="evenodd"></path></g></svg>