<svg id="svg" version="1.1" xmlns="http://www.w3.org/2000/svg" xmlns:xlink="http://www.w3.org/1999/xlink" width="400" height="400" viewBox="0, 0, 400,400"><g id="svgg"><path id="path0" d="M88.065 32.581 L 88.065 58.710 96.935 58.710 L 105.806 58.710 105.806 50.000 L 105.806 41.290 113.548 41.290 L 121.290 41.290 121.290 50.000 L 121.290 58.710 130.161 58.710 L 139.032 58.710 139.032 32.581 L 139.032 6.452 130.161 6.452 L 121.290 6.452 121.290 15.000 L 121.290 23.548 113.387 23.548 L 105.484 23.548 105.484 15.000 L 105.484 6.452 96.774 6.452 L 88.065 6.452 88.065 32.581 M146.452 15.161 L 146.452 23.871 154.032 23.871 L 161.613 23.871 161.613 41.290 L 161.613 58.710 170.484 58.710 L 179.355 58.710 179.355 41.290 L 179.355 23.871 187.097 23.871 L 194.839 23.871 194.839 15.161 L 194.839 6.452 170.645 6.452 L 146.452 6.452 146.452 15.161 M202.258 32.581 L 202.258 58.710 210.964 58.710 L 219.670 58.710 219.754 46.239 L 219.839 33.768 225.609 42.690 C 228.783 47.598,231.468 51.612,231.577 51.610 C 231.685 51.609,234.387 47.583,237.581 42.665 L 243.387 33.723 243.472 46.216 L 243.556 58.710 252.423 58.710 L 261.290 58.710 261.290 32.581 L 261.290 6.452 251.981 6.452 L 242.672 6.452 237.207 15.444 L 231.742 24.436 226.274 15.444 L 220.806 6.453 211.532 6.453 L 202.258 6.452 202.258 32.581 M269.677 32.581 L 269.677 58.710 290.806 58.710 L 311.935 58.710 311.935 50.000 L 311.935 41.290 299.677 41.290 L 287.419 41.290 287.419 23.871 L 287.419 6.452 278.548 6.452 L 269.677 6.452 269.677 32.581 " stroke="none" fill="#040404" fill-rule="evenodd"></path><path id="path1" d="M62.424 83.468 C 62.519 84.133,63.170 91.210,63.871 99.194 C 64.573 107.177,66.096 124.379,67.258 137.419 C 68.419 150.460,70.015 168.387,70.805 177.258 C 74.736 221.405,78.280 261.188,80.174 282.419 C 81.329 295.371,82.928 313.298,83.727 322.258 C 84.526 331.218,85.660 343.955,86.246 350.564 C 86.832 357.173,87.372 362.627,87.446 362.684 C 87.784 362.946,198.949 393.557,199.546 393.553 C 199.917 393.551,203.836 392.542,208.255 391.311 C 217.681 388.687,249.921 379.752,284.032 370.310 C 309.554 363.246,311.646 362.655,311.856 362.445 C 311.971 362.330,312.388 358.576,312.784 354.102 C 313.625 344.607,317.440 301.792,319.516 278.548 C 320.309 269.677,321.616 255.016,322.420 245.968 C 323.225 236.919,324.531 222.258,325.323 213.387 C 326.115 204.516,327.131 193.121,327.581 188.065 C 328.030 183.008,329.046 171.613,329.839 162.742 C 330.632 153.871,332.513 132.677,334.019 115.645 C 335.525 98.613,336.836 84.133,336.931 83.468 L 337.104 82.258 199.677 82.258 L 62.250 82.258 62.424 83.468 M311.682 106.694 C 311.622 107.359,306.813 161.071,300.996 226.054 C 295.178 291.037,290.355 344.269,290.276 344.347 C 290.151 344.472,200.132 369.677,199.810 369.677 C 199.740 369.677,199.645 361.730,199.600 352.016 L 199.516 334.355 164.355 324.554 C 145.016 319.164,129.170 314.736,129.141 314.715 C 129.111 314.694,128.061 303.137,126.806 289.032 C 125.551 274.927,124.441 262.770,124.339 262.016 L 124.154 260.645 141.593 260.645 C 151.185 260.645,159.030 260.754,159.027 260.887 C 159.015 261.437,161.376 287.910,161.445 287.991 C 161.486 288.039,169.923 290.327,180.195 293.076 C 190.467 295.824,199.052 298.139,199.274 298.220 C 199.595 298.337,199.677 292.748,199.677 270.958 L 199.677 243.548 161.204 243.548 L 122.731 243.548 118.051 191.694 L 113.371 139.839 156.524 139.757 L 199.677 139.675 199.677 122.579 L 199.677 105.484 255.734 105.484 L 311.791 105.484 311.682 106.694 M151.412 175.887 C 151.520 176.819,152.192 184.185,152.907 192.258 C 153.621 200.331,154.282 207.407,154.376 207.984 L 154.545 209.032 177.111 209.032 L 199.677 209.032 199.677 191.613 L 199.677 174.194 175.447 174.194 L 151.216 174.194 151.412 175.887 " stroke="none" fill="#e44c24" fill-rule="evenodd"></path><path id="path2" d="M113.698 141.371 C 113.832 142.525,122.888 242.613,122.902 243.092 C 122.903 243.107,149.640 243.219,182.319 243.341 C 214.997 243.463,241.771 243.599,241.815 243.643 C 241.860 243.688,240.996 253.730,239.896 265.960 L 237.897 288.197 219.029 293.278 C 208.652 296.072,199.947 298.365,199.685 298.373 C 199.202 298.387,161.563 288.390,161.320 288.183 C 161.248 288.121,160.638 281.936,159.965 274.439 C 159.293 266.941,158.735 260.770,158.726 260.726 C 158.657 260.385,124.516 260.699,124.516 261.041 C 124.516 262.351,129.071 312.619,129.271 313.517 L 129.516 314.615 164.482 324.364 L 199.447 334.114 234.159 324.493 C 253.251 319.201,269.087 314.741,269.351 314.581 C 269.739 314.345,270.723 304.318,274.523 261.903 L 279.216 209.516 216.705 209.435 L 154.194 209.353 154.177 208.628 C 154.167 208.229,153.463 200.355,152.612 191.129 C 151.762 181.903,151.124 174.247,151.196 174.114 C 151.268 173.982,180.738 173.873,216.685 173.873 C 252.632 173.872,282.123 173.791,282.220 173.694 C 282.366 173.548,285.421 142.095,285.469 140.242 C 285.483 139.706,281.180 139.677,199.493 139.677 L 113.502 139.677 113.698 141.371 " stroke="none" fill="#f3f3f3" fill-rule="evenodd"></path><path id="path3" d="M199.677 122.581 L 199.677 139.677 242.677 139.677 L 285.677 139.677 284.640 150.887 C 284.070 157.052,283.352 164.819,283.044 168.145 L 282.485 174.194 241.081 174.194 L 199.677 174.194 199.677 191.613 L 199.677 209.032 239.516 209.032 C 261.427 209.032,279.357 209.141,279.359 209.274 C 279.367 209.726,269.942 314.677,269.890 314.714 C 269.862 314.734,254.524 318.990,235.806 324.172 C 217.089 329.354,201.266 333.740,200.645 333.920 L 199.516 334.247 199.602 351.962 C 199.649 361.706,199.744 369.677,199.812 369.677 C 200.133 369.677,290.152 344.472,290.276 344.347 C 290.355 344.269,295.178 291.037,300.996 226.054 C 306.813 161.071,311.622 107.359,311.682 106.694 L 311.791 105.484 255.734 105.484 L 199.677 105.484 199.677 122.581 M199.677 270.937 L 199.677 298.326 202.349 297.591 C 203.819 297.187,212.229 294.928,221.039 292.572 C 229.849 290.216,237.217 288.190,237.413 288.068 C 237.716 287.881,241.609 247.425,241.612 244.435 L 241.613 243.548 220.645 243.548 L 199.677 243.548 199.677 270.937 " stroke="none" fill="#f3632b" fill-rule="evenodd"></path><path id="path4" d="M113.623 142.258 C 113.623 142.879,113.690 143.133,113.771 142.823 C 113.852 142.512,113.852 142.004,113.771 141.694 C 113.690 141.383,113.623 141.637,113.623 142.258 M113.946 145.806 C 113.946 146.427,114.012 146.681,114.093 146.371 C 114.174 146.060,114.174 145.552,114.093 145.242 C 114.012 144.931,113.946 145.185,113.946 145.806 M114.268 149.355 C 114.268 149.976,114.335 150.230,114.416 149.919 C 114.497 149.609,114.497 149.101,114.416 148.790 C 114.335 148.480,114.268 148.734,114.268 149.355 M114.591 152.903 C 114.591 153.524,114.657 153.778,114.738 153.468 C 114.820 153.157,114.820 152.649,114.738 152.339 C 114.657 152.028,114.591 152.282,114.591 152.903 M114.914 156.452 C 114.914 157.073,114.980 157.327,115.061 157.016 C 115.142 156.706,115.142 156.198,115.061 155.887 C 114.980 155.577,114.914 155.831,114.914 156.452 M282.258 173.547 C 282.258 173.758,268.092 173.897,240.887 173.952 L 199.516 174.035 241.048 174.114 C 277.786 174.184,282.581 174.138,282.581 173.710 C 282.581 173.444,282.508 173.226,282.419 173.226 C 282.331 173.226,282.258 173.370,282.258 173.547 M151.183 174.086 C 151.065 174.204,150.970 174.458,150.973 174.651 C 150.976 174.859,151.080 174.839,151.232 174.599 C 151.431 174.286,156.783 174.179,175.502 174.113 L 199.516 174.028 175.457 173.950 C 162.224 173.906,151.301 173.968,151.183 174.086 M151.365 177.419 C 151.365 178.040,151.432 178.294,151.513 177.984 C 151.594 177.673,151.594 177.165,151.513 176.855 C 151.432 176.544,151.365 176.798,151.365 177.419 M117.817 188.710 C 117.817 189.331,117.883 189.585,117.964 189.274 C 118.045 188.964,118.045 188.456,117.964 188.145 C 117.883 187.835,117.817 188.089,117.817 188.710 M118.139 192.258 C 118.139 192.879,118.206 193.133,118.287 192.823 C 118.368 192.512,118.368 192.004,118.287 191.694 C 118.206 191.383,118.139 191.637,118.139 192.258 M118.462 195.806 C 118.462 196.427,118.528 196.681,118.609 196.371 C 118.691 196.060,118.691 195.552,118.609 195.242 C 118.528 194.931,118.462 195.185,118.462 195.806 M118.785 199.355 C 118.785 199.976,118.851 200.230,118.932 199.919 C 119.013 199.609,119.013 199.101,118.932 198.790 C 118.851 198.480,118.785 198.734,118.785 199.355 M119.107 202.903 C 119.107 203.524,119.173 203.778,119.255 203.468 C 119.336 203.157,119.336 202.649,119.255 202.339 C 119.173 202.028,119.107 202.282,119.107 202.903 M153.946 206.129 C 153.946 206.750,154.012 207.004,154.093 206.694 C 154.174 206.383,154.174 205.875,154.093 205.565 C 154.012 205.254,153.946 205.508,153.946 206.129 M119.430 206.452 C 119.430 207.073,119.496 207.327,119.577 207.016 C 119.658 206.706,119.658 206.198,119.577 205.887 C 119.496 205.577,119.430 205.831,119.430 206.452 M154.194 209.113 C 154.194 209.246,182.391 209.320,216.855 209.276 C 251.319 209.233,269.355 209.161,256.935 209.115 C 196.832 208.895,154.194 208.894,154.194 209.113 M119.752 210.000 C 119.752 210.621,119.819 210.875,119.900 210.565 C 119.981 210.254,119.981 209.746,119.900 209.435 C 119.819 209.125,119.752 209.379,119.752 210.000 M279.107 210.645 C 279.107 211.266,279.173 211.520,279.255 211.210 C 279.336 210.899,279.336 210.391,279.255 210.081 C 279.173 209.770,279.107 210.024,279.107 210.645 M276.849 235.806 C 276.849 236.427,276.915 236.681,276.997 236.371 C 277.078 236.060,277.078 235.552,276.997 235.242 C 276.915 234.931,276.849 235.185,276.849 235.806 M122.661 242.339 L 122.742 243.387 161.048 243.389 L 199.355 243.391 161.149 243.307 L 122.944 243.223 122.762 242.257 C 122.584 241.306,122.582 241.308,122.661 242.339 M274.914 257.419 C 274.914 258.040,274.980 258.294,275.061 257.984 C 275.142 257.673,275.142 257.165,275.061 256.855 C 274.980 256.544,274.914 256.798,274.914 257.419 M124.591 264.194 C 124.591 264.815,124.657 265.069,124.738 264.758 C 124.820 264.448,124.820 263.940,124.738 263.629 C 124.657 263.319,124.591 263.573,124.591 264.194 M159.107 264.516 C 159.107 265.137,159.173 265.391,159.255 265.081 C 159.336 264.770,159.336 264.262,159.255 263.952 C 159.173 263.641,159.107 263.895,159.107 264.516 M124.914 267.742 C 124.914 268.363,124.980 268.617,125.061 268.306 C 125.142 267.996,125.142 267.488,125.061 267.177 C 124.980 266.867,124.914 267.121,124.914 267.742 M125.236 271.290 C 125.236 271.911,125.303 272.165,125.384 271.855 C 125.465 271.544,125.465 271.036,125.384 270.726 C 125.303 270.415,125.236 270.669,125.236 271.290 M159.752 271.935 C 159.752 272.556,159.819 272.810,159.900 272.500 C 159.981 272.190,159.981 271.681,159.900 271.371 C 159.819 271.060,159.752 271.315,159.752 271.935 M239.107 272.903 C 239.107 273.524,239.173 273.778,239.255 273.468 C 239.336 273.157,239.336 272.649,239.255 272.339 C 239.173 272.028,239.107 272.282,239.107 272.903 M125.559 274.839 C 125.559 275.460,125.625 275.714,125.706 275.403 C 125.787 275.093,125.787 274.585,125.706 274.274 C 125.625 273.964,125.559 274.218,125.559 274.839 M160.075 275.484 C 160.075 276.105,160.141 276.359,160.222 276.048 C 160.304 275.738,160.304 275.230,160.222 274.919 C 160.141 274.609,160.075 274.863,160.075 275.484 M272.655 282.581 C 272.655 283.202,272.722 283.456,272.803 283.145 C 272.884 282.835,272.884 282.327,272.803 282.016 C 272.722 281.706,272.655 281.960,272.655 282.581 M160.720 282.903 C 160.720 283.524,160.786 283.778,160.868 283.468 C 160.949 283.157,160.949 282.649,160.868 282.339 C 160.786 282.028,160.720 282.282,160.720 282.903 M161.043 286.452 C 161.043 287.073,161.109 287.327,161.190 287.016 C 161.271 286.706,161.271 286.198,161.190 285.887 C 161.109 285.577,161.043 285.831,161.043 286.452 M237.779 287.151 C 237.759 287.624,237.560 288.084,237.339 288.173 C 237.023 288.301,237.025 288.342,237.349 288.362 C 237.861 288.393,238.169 287.651,237.968 286.874 C 237.866 286.480,237.805 286.571,237.779 287.151 M126.849 289.355 C 126.849 289.976,126.915 290.230,126.997 289.919 C 127.078 289.609,127.078 289.101,126.997 288.790 C 126.915 288.480,126.849 288.734,126.849 289.355 M127.172 292.903 C 127.172 293.524,127.238 293.778,127.319 293.468 C 127.400 293.157,127.400 292.649,127.319 292.339 C 127.238 292.028,127.172 292.282,127.172 292.903 M127.494 296.452 C 127.494 297.073,127.561 297.327,127.642 297.016 C 127.723 296.706,127.723 296.198,127.642 295.887 C 127.561 295.577,127.494 295.831,127.494 296.452 M127.817 300.000 C 127.817 300.621,127.883 300.875,127.964 300.565 C 128.045 300.254,128.045 299.746,127.964 299.435 C 127.883 299.125,127.817 299.379,127.817 300.000 M270.720 304.194 C 270.720 304.815,270.786 305.069,270.868 304.758 C 270.949 304.448,270.949 303.940,270.868 303.629 C 270.786 303.319,270.720 303.573,270.720 304.194 " stroke="none" fill="#ed9572" fill-rule="evenodd"></path></g></svg>