<svg xmlns="http://www.w3.org/2000/svg" xmlns:xlink="http://www.w3.org/1999/xlink" viewBox="0 0 703.25 287.47"><defs><style>.cls-1,.cls-3{fill:#1a987c;}.cls-2{fill:url(#linear-gradient);}.cls-3{stroke:#1a987c;stroke-miterlimit:10;}.cls-4{fill:#4d4d4d;}</style><linearGradient id="linear-gradient" x1="306.61" y1="77.02" x2="432.39" y2="148.81" gradientUnits="userSpaceOnUse"><stop offset="0" stop-color="#89c739"/><stop offset="0.41" stop-color="#6dbe4d"/><stop offset="1" stop-color="#1a987c"/></linearGradient></defs><g id="Layer_2" data-name="Layer 2"><g id="Layer_1-2" data-name="Layer 1"><path class="cls-1" d="M0,45.83Q0,.19,62.71.18q62.87,0,62.87,45.65V75.07H81.87V45.83q0-14.62-19-14.74h-.31q-18.86,0-18.85,14.74V65.55q0,14.51,40.94,35.56t40.93,50.19v27.47q0,45.76-62.71,45.76Q0,224.41,0,178.77V149.52H43.71v29.25q0,14.74,19.16,14.74,19,0,19-14.74V154q0-15.74-40.94-36.79T0,66.21Z"/><path class="cls-1" d="M568.91,0V117.54c0,9.47-6.34,18-16.59,24.25a68.22,68.22,0,0,1-20,7.85v75.14h-40V149.64c-21.4-4.9-36.63-17.42-36.63-32.1V0h40.78V117.33c0,5.3,7.09,9.6,15.85,9.6s15.86-4.3,15.86-9.6V0Z"/><path class="cls-1" d="M648.11,0C617.65,0,593,13.76,593,30.74v194h39.7V149.61a96.13,96.13,0,0,0,15.45,1.23c15.23,0,29-3.44,39-9s16.15-13.25,16.15-21.74V30.74C703.25,13.76,678.56,0,648.11,0Zm15.44,96c0,.05,0,.09,0,.14s0,.09,0,.14v25c0,4.75-6.92,8.6-15.44,8.6a22.83,22.83,0,0,1-10.92-2.52c-2.8-1.55-4.53-3.71-4.53-6.08V30.06c0-4.75,6.92-8.6,15.45-8.6A22.81,22.81,0,0,1,659,24c2.8,1.56,4.53,3.7,4.53,6.08Z"/><polygon class="cls-1" points="279.74 0.01 279.74 30.53 233.21 30.53 233.21 224.78 193.21 224.78 193.21 30.53 146.68 30.53 146.68 0.01 279.74 0.01"/><path class="cls-2" d="M431.4,43.66C429.9,19.43,402.05.11,367.9.11h0c-34.15,0-62,19.32-63.5,43.55h-.07V75.49L286.65,68q0,16.85.08,33.69l17.6,7.29v69.29c0,25.19,28.46,45.6,63.57,45.6h0c35.11,0,63.57-20.41,63.57-45.6V148.66H385.7v31.1c0,7.05-8,12.76-17.8,12.76h0c-9.83,0-17.8-5.71-17.8-12.76V142.93c0-.07,0-.14,0-.2a1.13,1.13,0,0,1,0-.3c0-.07,0-.14,0-.21V129.63a87.12,87.12,0,0,0,17.8,1.83h0c29.12,0,53.65-14.05,61.18-33.21h.06v-.19a33.69,33.69,0,0,0,2.32-12.2V43.66Zm-63.5,56.73h0a23.43,23.43,0,0,1-7.34-1.16l-3.82-1.61-6.64-3.11v-44c0-.06,0-.13,0-.2s0-.13,0-.2V44.71c0-7.05,8-12.77,17.8-12.77h0c9.83,0,17.8,5.72,17.8,12.77v5.38c0,.07,0,.13,0,.2s0,.14,0,.2V87.62C385.7,94.67,377.73,100.39,367.9,100.39Z"/><path class="cls-3" d="M572.93,275.71V247h-9.77v-6.26h26.15V247h-9.78v28.74Z"/><path class="cls-3" d="M604.8,273.16h-.39a10.61,10.61,0,0,1-2.71,2.35,7.7,7.7,0,0,1-4.08,1,10.14,10.14,0,0,1-3.5-.61,9.17,9.17,0,0,1-2.86-1.69,7.44,7.44,0,0,1-1.9-2.59,7.93,7.93,0,0,1-.69-3.32,7.46,7.46,0,0,1,.74-3.35,7.7,7.7,0,0,1,2.05-2.57,9.26,9.26,0,0,1,3.1-1.63,12.74,12.74,0,0,1,3.89-.57,16.52,16.52,0,0,1,3.86.37,18,18,0,0,1,2.49.76v-.74a3.9,3.9,0,0,0-1.51-3.15,5.74,5.74,0,0,0-3.77-1.24,7,7,0,0,0-5.62,2.78l-4.64-3.18A12.59,12.59,0,0,1,599.67,251c3.72,0,6.55.88,8.51,2.62s2.93,4.32,2.93,7.75v14.37H604.8Zm0-7.18a13.76,13.76,0,0,0-2.32-.86,10.26,10.26,0,0,0-2.61-.31,5.54,5.54,0,0,0-3.55,1,3.05,3.05,0,0,0-1.24,2.47,2.77,2.77,0,0,0,1.19,2.34,4.53,4.53,0,0,0,2.77.88,5.82,5.82,0,0,0,2.34-.46,6,6,0,0,0,1.84-1.22,5.53,5.53,0,0,0,1.17-1.76A5.32,5.32,0,0,0,604.8,266Z"/><path class="cls-3" d="M616.68,275.71v-35h6.4v35Z"/><path class="cls-3" d="M629.05,251.76h6v3.32h.39a6.09,6.09,0,0,1,1.17-1.61,8.51,8.51,0,0,1,1.64-1.28,9.15,9.15,0,0,1,2-.88,6.9,6.9,0,0,1,2.07-.34,7.31,7.31,0,0,1,2.18.28,5.48,5.48,0,0,1,1.54.7l-1.71,5.72a5.7,5.7,0,0,0-1.3-.46,7.12,7.12,0,0,0-1.73-.18,5.55,5.55,0,0,0-2.4.52A5.35,5.35,0,0,0,637,259a6.57,6.57,0,0,0-1.17,2.19,8.48,8.48,0,0,0-.42,2.72v11.8h-6.4Z"/><path class="cls-3" d="M659.3,251a13.25,13.25,0,0,1,5.11,1,11.87,11.87,0,0,1,4,2.64,12.06,12.06,0,0,1,2.64,4,14.33,14.33,0,0,1,0,10.26,11.83,11.83,0,0,1-6.65,6.68,14.19,14.19,0,0,1-10.21,0,12.17,12.17,0,0,1-4-2.64,11.9,11.9,0,0,1-2.64-4,14.19,14.19,0,0,1,0-10.26,11.85,11.85,0,0,1,6.65-6.67A13.2,13.2,0,0,1,659.3,251Zm0,19.6a6.3,6.3,0,0,0,2.38-.46,6.1,6.1,0,0,0,2-1.34,6.56,6.56,0,0,0,1.4-2.15,8.42,8.42,0,0,0,0-5.77,6.36,6.36,0,0,0-1.4-2.15,6,6,0,0,0-2-1.35,6.3,6.3,0,0,0-2.38-.46,6.2,6.2,0,0,0-2.39.46,6.14,6.14,0,0,0-2,1.35,6.34,6.34,0,0,0-1.39,2.15,8.42,8.42,0,0,0,0,5.77,6.54,6.54,0,0,0,1.39,2.15,6.27,6.27,0,0,0,2,1.34A6.2,6.2,0,0,0,659.3,270.57Z"/><path class="cls-3" d="M676.17,251.76h6v2.88h.39a7.31,7.31,0,0,1,2.74-2.59A9,9,0,0,1,689.9,251a10.35,10.35,0,0,1,4.38,1,11.45,11.45,0,0,1,3.66,2.64,12.42,12.42,0,0,1,2.52,4,14.61,14.61,0,0,1,0,10.26,12.57,12.57,0,0,1-2.52,4,11.77,11.77,0,0,1-3.66,2.64,10.5,10.5,0,0,1-4.38.95,9,9,0,0,1-4.59-1.08,7.24,7.24,0,0,1-2.74-2.59h-.39l.39,3.42v10h-6.4Zm12.41,18.81a6.18,6.18,0,0,0,2.42-.48,6.55,6.55,0,0,0,2-1.37,6.77,6.77,0,0,0,1.42-2.15,7.22,7.22,0,0,0,.54-2.84,7.14,7.14,0,0,0-.54-2.83,6.55,6.55,0,0,0-1.42-2.15,6.22,6.22,0,0,0-2-1.37,6,6,0,0,0-2.42-.49,6.43,6.43,0,0,0-2.42.46,6,6,0,0,0-2,1.35,6.55,6.55,0,0,0-1.42,2.15,8,8,0,0,0,0,5.77,6.77,6.77,0,0,0,1.42,2.15,6.1,6.1,0,0,0,2,1.34A6.43,6.43,0,0,0,688.58,270.57Z"/><path class="cls-4" d="M231.09,276.45h-5.2l13.77-36.51H245l13.77,36.51h-5.2L250,266.56H234.66Zm11.12-30.75-6,16.47h12.14l-6-16.47Z"/><path class="cls-4" d="M292.75,269.52a6.75,6.75,0,0,1-2.86,5.5,11.25,11.25,0,0,1-7.19,2.25,11.4,11.4,0,0,1-6.63-2,10.82,10.82,0,0,1-4.08-5.17l4.18-1.79a7.88,7.88,0,0,0,2.68,3.5,6.53,6.53,0,0,0,3.85,1.25,6.83,6.83,0,0,0,3.75-1,2.76,2.76,0,0,0,1.5-2.3q0-2.4-3.67-3.52L280,265.23q-7.29-1.83-7.29-7a6.51,6.51,0,0,1,2.77-5.48,11.62,11.62,0,0,1,7.12-2.06,11.48,11.48,0,0,1,6,1.58,8.52,8.52,0,0,1,3.75,4.23l-4.18,1.73a5.32,5.32,0,0,0-2.32-2.47,7.33,7.33,0,0,0-3.6-.89,6,6,0,0,0-3.29.92A2.63,2.63,0,0,0,277.5,258q0,2.14,4,3.06l3.77,1Q292.76,263.85,292.75,269.52Z"/><path class="cls-4" d="M306.57,276.86a7.15,7.15,0,0,1-5.08-1.89,7,7,0,0,1-2.06-5.25v-14H295v-4.29h4.39v-7.65h4.69v7.65h6.12v4.29h-6.12v12.44c0,1.67.32,2.8,1,3.39a3.14,3.14,0,0,0,2.19.89,5,5,0,0,0,1.1-.12,6.38,6.38,0,0,0,1-.33l1.48,4.18A12.62,12.62,0,0,1,306.57,276.86Z"/><path class="cls-4" d="M323.81,250.65c3.47,0,6.2.92,8.21,2.78a9.87,9.87,0,0,1,3,7.62v15.4h-4.49V273h-.2a9,9,0,0,1-7.76,4.29,10.11,10.11,0,0,1-6.91-2.45,7.82,7.82,0,0,1-2.78-6.12,7.43,7.43,0,0,1,2.94-6.17,12.33,12.33,0,0,1,7.82-2.3,13.86,13.86,0,0,1,6.89,1.53v-1.07a5.34,5.34,0,0,0-1.94-4.15,6.63,6.63,0,0,0-4.54-1.71,7.18,7.18,0,0,0-6.22,3.31l-4.13-2.6Q317.13,250.65,323.81,250.65Zm-6.07,18.15a3.74,3.74,0,0,0,1.55,3.06,5.73,5.73,0,0,0,3.65,1.23,7.46,7.46,0,0,0,5.28-2.2,6.86,6.86,0,0,0,2.32-5.15,9.67,9.67,0,0,0-6.12-1.73,8,8,0,0,0-4.77,1.37A4.11,4.11,0,0,0,317.74,268.8Z"/><path class="cls-4" d="M340.43,251.46h4.49v4.08h.2q2.1-4.78,8.62-4.79l1,.1v4.9l-2.09-.21a7.47,7.47,0,0,0-5.38,2,6.77,6.77,0,0,0-2.12,5.12v13.77h-4.69Zm29.28,25.4a7.13,7.13,0,0,1-5.08-1.89,7,7,0,0,1-2.06-5.25v-14h-4.39v-4.29h4.39v-7.65h4.69v7.65h6.12v4.29h-6.12v12.44c0,1.67.32,2.8,1,3.39a3.1,3.1,0,0,0,2.19.89,5.08,5.08,0,0,0,1.1-.12,6.76,6.76,0,0,0,1-.33L374,276.2A12.62,12.62,0,0,1,369.71,276.86Z"/><path class="cls-4" d="M399.9,276.45h-4.49V273h-.2a8.29,8.29,0,0,1-3.29,3.06,9.41,9.41,0,0,1-4.62,1.23q-4.59,0-7.06-2.63t-2.48-7.47V251.46h4.7v15.4q.15,6.12,6.17,6.12a5.84,5.84,0,0,0,4.69-2.27,8.2,8.2,0,0,0,1.89-5.43V251.46h4.69Z"/><path class="cls-4" d="M418.72,277.27a10.72,10.72,0,0,1-5-1.18A8.75,8.75,0,0,1,410.2,273H410l.2,3.47v11h-4.69v-36H410v3.47h.2a8.82,8.82,0,0,1,3.49-3.11,11.11,11.11,0,0,1,13.39,2.7,14.4,14.4,0,0,1,0,18.87A10.72,10.72,0,0,1,418.72,277.27ZM418,273a7.31,7.31,0,0,0,5.66-2.55,9.18,9.18,0,0,0,2.3-6.47,9.32,9.32,0,0,0-2.3-6.48,7.61,7.61,0,0,0-11.37,0A9.43,9.43,0,0,0,410,264a9.52,9.52,0,0,0,2.24,6.53A7.44,7.44,0,0,0,418,273Z"/><path class="cls-4" d="M456.81,239.53a8.89,8.89,0,0,1,4.19.87l-1.28,4.13a6,6,0,0,0-2.75-.62,3.65,3.65,0,0,0-2.83,1.2,4.5,4.5,0,0,0-1.1,3.19v3.16h6.53v4.29H453v20.7h-4.69v-20.7h-4.7v-4.29h4.7v-3.62a8,8,0,0,1,2.37-6A8.39,8.39,0,0,1,456.81,239.53Z"/><path class="cls-4" d="M468.85,276.45h-4.69v-25h4.48v4.08h.21a6.77,6.77,0,0,1,2.93-3.39,8.17,8.17,0,0,1,4.36-1.4,8.76,8.76,0,0,1,3.47.61l-1.43,4.54a7.69,7.69,0,0,0-2.75-.36,6.11,6.11,0,0,0-4.62,2.14,7.17,7.17,0,0,0-2,5Z"/><path class="cls-4" d="M479.81,264a13.25,13.25,0,0,1,3.62-9.54,12.34,12.34,0,0,1,9.24-3.77,12.18,12.18,0,0,1,9.18,3.77,13.17,13.17,0,0,1,3.67,9.54,13,13,0,0,1-3.67,9.53,12.19,12.19,0,0,1-9.18,3.78,12.35,12.35,0,0,1-9.24-3.78A13.21,13.21,0,0,1,479.81,264Zm4.7,0a9.19,9.19,0,0,0,2.34,6.53,8,8,0,0,0,11.63,0,10.18,10.18,0,0,0,0-13,7.91,7.91,0,0,0-11.63,0A9.1,9.1,0,0,0,484.51,264Z"/><path class="cls-4" d="M514.09,276.45h-4.7v-25h4.49v3.47h.21a8.37,8.37,0,0,1,3.29-3.06,9,9,0,0,1,4.41-1.22,9.1,9.1,0,0,1,4.84,1.27,7.49,7.49,0,0,1,3.06,3.52,9.74,9.74,0,0,1,8.62-4.79A8.43,8.43,0,0,1,545,253.3c1.56,1.77,2.35,4.28,2.35,7.55v15.6h-4.69V261.56q0-3.53-1.28-5.07c-.85-1-2.28-1.56-4.28-1.56a5.6,5.6,0,0,0-4.54,2.3,8.34,8.34,0,0,0-1.84,5.4v13.82H526V261.56q0-3.53-1.28-5.07c-.85-1-2.27-1.56-4.28-1.56a5.62,5.62,0,0,0-4.54,2.3,8.38,8.38,0,0,0-1.83,5.4Z"/></g></g></svg>